<?xml version="1.0"?>
<svg xmlns:rdf="http://www.w3.org/1999/02/22-rdf-syntax-ns#" xmlns="http://www.w3.org/2000/svg" xmlns:cc="http://creativecommons.org/ns#" xmlns:xlink="http://www.w3.org/1999/xlink" xmlns:dc="http://purl.org/dc/elements/1.1/" xmlns:svg="http://www.w3.org/2000/svg" id="svg2" viewBox="0 0 417.53 526.47" version="1.1">
  <title id="title3160">Stop right there</title>
  <defs id="defs4">
    <linearGradient id="linearGradient3454">
      <stop id="stop3456" offset="0"/>
      <stop id="stop3458" stop-color="#333" offset="1"/>
    </linearGradient>
    <linearGradient id="linearGradient4678">
      <stop id="stop4680" stop-color="#a6babf" offset="0"/>
      <stop id="stop4682" stop-color="#5e6b6e" offset="1"/>
    </linearGradient>
    <filter id="filter4454" color-interpolation-filters="sRGB">
      <feGaussianBlur id="feGaussianBlur4456" stdDeviation="0.070268725"/>
    </filter>
    <linearGradient id="linearGradient4684" x1="355.92" xlink:href="#linearGradient4678" gradientUnits="userSpaceOnUse" x2="393.22" y1="252.89" y2="283.9"/>
    <linearGradient id="linearGradient4686" x1="385.18" xlink:href="#linearGradient4678" gradientUnits="userSpaceOnUse" x2="402.73" y1="278.36" y2="300.38"/>
    <linearGradient id="linearGradient4688" x1="402.72" xlink:href="#linearGradient4678" gradientUnits="userSpaceOnUse" x2="418.78" y1="254.87" y2="262.17"/>
    <linearGradient id="linearGradient4690" x1="390.25" xlink:href="#linearGradient4678" gradientUnits="userSpaceOnUse" x2="435.66" y1="306.16" y2="338.96"/>
    <linearGradient id="linearGradient4692" x1="438.54" xlink:href="#linearGradient4678" gradientUnits="userSpaceOnUse" x2="447.62" y1="321.48" y2="332.28"/>
    <linearGradient id="linearGradient3460" x1="437.25" xlink:href="#linearGradient3454" gradientUnits="userSpaceOnUse" x2="381.32" y1="468.3" y2="470.84"/>
    <linearGradient id="linearGradient3462" x1="377.29" xlink:href="#linearGradient3454" gradientUnits="userSpaceOnUse" x2="347.59" y1="683.24" y2="680.8"/>
    <linearGradient id="linearGradient3464" x1="507.46" xlink:href="#linearGradient3454" gradientUnits="userSpaceOnUse" x2="478.42" y1="697.51" y2="695.92"/>
    <linearGradient id="linearGradient3472" y2="338.94" gradientUnits="userSpaceOnUse" y1="294.88" x2="326.64" x1="311.29">
      <stop id="stop3468" stop-color="#f60" offset="0"/>
      <stop id="stop3470" stop-color="#925" offset="1"/>
    </linearGradient>
    <linearGradient id="linearGradient3516" y2="309.73" gradientUnits="userSpaceOnUse" y1="290.03" x2="310.14" x1="308.87">
      <stop id="stop3512" stop-color="#504416" offset="0"/>
      <stop id="stop3514" stop-color="#a02c2c" stop-opacity=".20886" offset="1"/>
    </linearGradient>
    <linearGradient id="linearGradient4294" y2="303.33" gradientUnits="userSpaceOnUse" y1="333.44" x2="295.7" x1="292.33">
      <stop id="stop4290" stop-color="#fff" offset="0"/>
      <stop id="stop4292" stop-color="#fff" stop-opacity="0" offset="1"/>
    </linearGradient>
    <linearGradient id="linearGradient4336" y2="397.76" gradientUnits="userSpaceOnUse" y1="326.26" x2="337.79" x1="311.41">
      <stop id="stop4332" stop-color="#784421" offset="0"/>
      <stop id="stop4334" stop-color="#d38d5f" offset="1"/>
    </linearGradient>
    <linearGradient id="linearGradient4338" x1="491.86" xlink:href="#linearGradient3454" gradientUnits="userSpaceOnUse" x2="453.97" y1="525.8" y2="516.29"/>
    <linearGradient id="linearGradient4394" x1="168.34" xlink:href="#linearGradient4678" gradientUnits="userSpaceOnUse" x2="188.82" y1="352.6" y2="393.26"/>
    <linearGradient id="linearGradient4396" x1="224.25" xlink:href="#linearGradient4678" gradientUnits="userSpaceOnUse" x2="262.43" y1="350.31" y2="375.13"/>
    <linearGradient id="linearGradient4398" x1="170" xlink:href="#linearGradient4678" gradientUnits="userSpaceOnUse" x2="228.33" y1="400.52" y2="397.88"/>
    <linearGradient id="linearGradient4400" x1="171.87" xlink:href="#linearGradient4678" gradientUnits="userSpaceOnUse" x2="161.94" y1="358.03" y2="396.58"/>
    <linearGradient id="linearGradient4402" x1="195.09" xlink:href="#linearGradient4678" gradientUnits="userSpaceOnUse" x2="250.57" y1="407.97" y2="397.94"/>
    <filter id="filter4454-3" color-interpolation-filters="sRGB">
      <feGaussianBlur id="feGaussianBlur4456-5" stdDeviation="0.070268725"/>
    </filter>
    <filter id="filter4454-34" color-interpolation-filters="sRGB">
      <feGaussianBlur id="feGaussianBlur4456-2" stdDeviation="0.070268725"/>
    </filter>
    <filter id="filter4454-9" color-interpolation-filters="sRGB">
      <feGaussianBlur id="feGaussianBlur4456-4" stdDeviation="0.070268725"/>
    </filter>
    <linearGradient id="linearGradient4503" y2="392.76" gradientUnits="userSpaceOnUse" y1="371.29" x2="250.17" x1="228.89">
      <stop id="stop4507" offset="0"/>
      <stop id="stop4509" stop-color="#333" stop-opacity="0" offset="1"/>
    </linearGradient>
  </defs>
  <g id="layer2" transform="translate(-115.64 -246.96)">
    <path id="path4686" style="color:#000000" d="m380.47 247c-18.024 1.7706-36.916 4.1092-53 12.875-6.5375 3.5138-12.382 9.0275-18.719 12.312-9.0512-2.449-17.241 3.8992-26 4.875-4.5946 1.3517-6.4807 6.0806-8.5625 9.8125-1.2574 6.7305 2.3428 13.69 6.375 18.844 2.9719 2.7219 9.157 6.8 5.0312 11.406-4.4451 5.0215-8.2524 14.974 0.0625 18.375 2.1806 1.6583 5.3907 2.3497 7.625 2.9688-1.6056 6.5178 2.1464 13.054 7.9375 15.906 6.6703 4.7866 15.394 8.1852 19.438 15.656-1.3848 7.4869-5.6016 15.694-1.9375 23.125-3.0366 0.74525-4.1409 5.6173-6.9375 2.0938-3.4123-2.087-7.6634-1.1852-10.812 0.40625-2.91-2.4123-7.3323-4.316-10.438-1-4.3774 2.2208-10.163 2.4229-14.5 2.5312 0.87904-5.4347 1.4163-13.167-4.7188-15.781 2.7669-1.1382 6.7856-6.569 2.0938-7.8125-0.9718-3.279-2.8891-7.3941-0.28125-10.5 1.4129-9.0061-8.7234-13.712-16.156-14.375-12.471-2.7909-25.351-3.7404-38-4.4688-7.6039-5.391-17.303-6.4573-26.281-7.625-10.262 0.38257-21.061 0.21093-30.219 5.2188-4.0365 0.72115-9.0268 1.6009-13.031 0.9375-7.6362-4.5382-15.842 1.637-23.312 3.5625-10.158 3.5798-14.238 18.717-6.3438 26.312 2.7808 1.4076 4.5691 2.7963 4.0938 6.25 0.43286 9.0305 5.5994 19.178 15.656 19.906 8.8766 1.0555 17.368-3.4937 26.156-1.8438 3.5743-0.85143 6.3334 1.0176 7.5938 4.2188 5.9403 7.2808 9.8912 17.389 18.688 21.469 2.6673 0.8213 5.4454-2.0513 6.6875-2.8438 0.78498 3.1424 3.823 4.9357 5.625 6.9062 1.2488 6.0752 9.7345 6.8282 9.9375 13.344 1.8606 4.2965 6.8094 5.869 11.062 6.25 3.4515 3.5237 8.9536 5.5059 13.438 2.9375 10.366-0.32963 21.1 1.5926 31.188-0.96875 6.8948 3.8415 13.956-2.8714 20.812-1.9688 4.4377 2.4464 9.3992 3.6888 14.344 1.7188 3.9205-0.36457 8.2498 2.0598 11.812-0.9375 2.0114-2.2298 2.7637-0.75865 4.5 0.71875 3.3442-0.22748 2.7611 4.1845 5.9062 4.8438 4.6171-0.85931 8.5574 1.8305 12.312 4.1875 6.9325 1.9842 14.035 2.4558 21.188 2.1875 3.1037 0.69075 6.6614-1.0287 9.4062-1.1562 0.58359 4.7435 1.7588 9.5228-0.53125 13.969-1.7275 5.871 2.3394 12.127 8.4375 12.75 5.4876-0.12133 2.4075 4.3021 0.90625 7.6875-2.8162 7.3534-8.4963 13.116-15.219 17-5.7982 4.077-13.206 11.925-8.2812 19.281 1.2939 1.3839 3.4061 3.305 1.0312 4.75-8.001 16.645-14.698 34.088-26.562 48.438-4.8805 6.2997-13.021 12.116-11.562 21.25 1.3162 9.7626 4.5597 18.952 5.5938 28.781 1.0604 6.7208 2.6192 13.733 3.3438 20.281-5.921 2.3966-7.7015 12.634-1.375 15.5 1.9008 11.875 5.6311 23.515 7.8125 35.219-0.29947 4.4343-5.8317 2.5733-8.5204 4.607-15.333 5.3822-31.785 8.9457-45.667 17.268-2.05 2.5515-3.3435 6.7808-7.625 5.6562 1.9605 6.206-3.8402 14.347 2.0625 19.156 5.7741 0.72752 5.9748 9.0605 11.938 10 4.7299 1.7845 9.7717 2.7873 14.656 4.3125-1.002-2.2082-2.2088-6.5767-0.0312-2.875 0.28067 4.6274 6.2159 3.0201 9.7812 3.25 3.181 0.22381 5.5544-2.8931 6.1875-5.1562 1.9358 2.2652 4.0416 5.5106 7.5938 4.7188 4.2339 1.8485 6.7494-2.4684 9.0625-4.875 2.5825 5.5132 10.36 5.2714 15.219 2.6875 0.16579-2.8215 2.473-3.824 4.2812-1.5625 4.5102 3.3627 12.157 4.5642 15.469-1.2188 1.2027-0.91173 2.3613 2.9208 4.4688 2.7812 3.7022 0.99715 7.4594-0.41116 11.156-0.75-1.2269-3.82 2.1933-4.743 5.0312-4.1562 5.6084-0.96622 8.2913-7.5569 6.25-12.438-0.16281-6.0324-2.136-11.973-3.7188-17.75-1.161-2.6783-4.2977-3.1768-4.6875-6.3125-0.93304-2.1891-4.0473-3.9464-0.46875-5.3125 5.0353-4.666 1.6403-12.068 1.5312-17.906-0.28574-4.1254-3.3309-7.4839-4.3438-11.156 0.70821-5.5268 1.5875-14.032-5.2188-16.062 2.0932-9.1503-1.8698-22.319-12.656-23.188-3.3738 0.38908-2.5598-5.5904-4.3438-7.5938-2.9908-9.0487-3.9701-19.2-6.0312-28.094 3.6322-0.16822 7.2697-4.4518 3.8125-7.375-1.0487-1.5192-5.2371-2.104-2.5-4.2188 6.8099-10.392 17.06-17.858 24.804-27.421 7.4495-7.6115 13.769-17.343 21.852-23.641 9.1328 3.6009 21.754 5.2066 29.281-2.3125 2.142-2.7403 3.7808-5.8248 5.1875-9 8.5618 23.583 17.497 47.029 25.938 70.656-5.8792 4.5394-2.8679 12.986-6.0312 18.906-1.4704 6.6342 8.9306 6.7068 7.7812 12.938 0.58678 7.7372 2.6748 16.117 2.5938 23.438-6.3685 0.73258-7.5325 8.5059-5.4708 13.451 2.1777 8.6652 4.0223 17.449 2.3458 26.33 0.38159 5.7446 5.2901 11.171 2.2812 16.969-1.0202 7.0249 0.62203 14.859-3.875 20.906-2.1902 8.8946-1.7972 19.158 2.5 27.281 3.4986 5.9856 11.556 3.8174 17.247 5.2376 14.591 0.86365 29.826 1.0367 43.753-3.7064 4.114-1.5261 6.2054-5.7706 6-9.875 1.5734-6.1541-0.8996-12.523-1.9375-18.562-2.5221-6.8938-12.972-7.1302-15.031-13.625 1.324-3.2532-2.3757-6.468-2.4062-8.7812 3.4204-2.8472 1.6044-8.3633-1.7812-9.9688 4.6852-6.5967 1.7639-15.449 2.25-23.094-0.71437-7.4993-0.57476-15.77-4.0625-22.5-2.2286-2.2866-5.6562-2.7925-8.7188-2.4375-1.4405-8.2878-5.5446-16.888-3.7188-25.344 3.073-4.6074 5.2447-11.704 0.34375-15.844 0.16744-4.1556 3.4082-9.223-0.5-12.938-4.2864-4.0973-0.89571-9.9191-1.8125-15.094 0.1858-9.0485-1.2318-19.045-1.0938-27.438 5.366 0.58442 10.136-4.807 7.625-10.031-0.9237-3.2566-1.4928-7.8585 2.2188-9.6875-1.7909-10.639-2.7226-21.49-5.4688-31.906-0.13123-6.9941-3.552-13.195-5.5312-19.719-0.9118-3.6572-6.5007-4.3454-5-8.7812 1.9283-4.6595-1.3545-9.9084 1.2183-14.632 3.35-13.153 5.7268-27.278 1.2817-40.493-0.96666-4.7751-2.8759-9.7383-3.1875-14.438 6.2794-4.9763 9.1406-13.893 8.4688-21.688-0.75699-3.1035-2.0533-6.365 1.6875-7.5312 7.6924-7.6254 4.5271-20.651-1.2188-28.469-2.4042-3.2099-6.3387-5.0709-9.9375-6.0312-3.8165-7.9065-9.4818-16.671-18.219-19.5-7.2521-1.6688-14.252 5.2283-18.469 8.375 5.4149-5.1609 10.63-14.587 5.625-21.562-2.3465-2.7699-7.1166-2.8971-6.5625-7.4688-1.854-7.6504-7.3704-14.282-10.25-21.062 3.6613-9.3933-3.716-18.75-10.509-24.56-3.7626-1.9997-2.7856-7.1008-7.0218-8.9084-5.1379-3.8138-12.1-7.9565-18.5-5.2812-7.205-1.3322-14.472-3.7401-21.969-3.375zm58.938 99.844c-2.095 1.1219-4.8948 4.5526-6.3438 4.875 2.1815-1.9859 3.8126-5.3114 7.2188-5.5l-0.81373 0.58124-0.0613 0.0438z"/>
    <path id="path4667" style="color:#000000" fill="#808080" d="m466.92 759.58s1.5729 6.5162 3.1458 7.415c1.5729 0.89878 15.954 2.4717 20.672 2.4717 4.7186 0 22.245-0.89879 27.638-1.7976 5.3927-0.89879 8.9879-3.3705 9.662-4.2692 0.67409-0.89879-0.89879-9.2126-0.89879-9.2126z"/>
    <path id="path4648" style="color:#000000" fill="#333" d="m468.04 759.58s1.3482 5.6174 3.5952 6.7409 28.537 3.8199 35.053 2.6964c6.5162-1.1235 18.2-5.3927 19.099-6.9656 0.89879-1.5729 0.44939-9.4373 0.44939-9.4373z"/>
    <path id="path4629" style="color:#000000" fill="#808080" d="m473.89 735.31-4.0446 0.67409s-3.5952 6.2915-3.5952 7.6397-0.67409 15.279 0.89879 17.526 15.279 4.0446 29.66 3.3705 31.008-4.2692 32.132-6.0668c1.1235-1.7976-1.7976-15.954-2.0223-16.852-0.22469-0.89879-9.2126-6.5162-10.111-6.7409-0.89879-0.22469-4.2692-4.7186-4.2692-4.7186z"/>
    <path id="path4484" style="color:#000000" fill="#333" d="m279.07 745.2 3.5952 7.1903s26.29 3.5952 41.344 3.1458c15.055-0.44939 57.298-2.0223 61.342-2.6964 4.0446-0.67409 3.8198-13.032 3.8198-13.032z"/>
    <path id="path4446" style="color:#000000" fill="#006680" d="m343.56 705.65s-56.848 17.751-60.668 21.346c-3.8199 3.5952-2.6964 7.8644-2.6964 7.8644l104.26-3.5952s1.7976-2.9211-1.3482-9.4373-20.223-16.178-20.223-16.178z"/>
    <path id="path3410" style="color:#000000" fill="#045" d="m343.56 705.66s-3.3982 1.0582-6.4688 2.0312c3.8818 1.3742 11.816 4.3473 13.719 6.25 2.5422 2.5422-3.4789 12.708-4.75 13.344-1.2463 0.62314-25.265 6.004-26.219 6.2188l64.625-2.2188s1.7708-2.9213-1.375-9.4375-20.219-16.188-20.219-16.188h-19.312z"/>
    <path id="path4257" style="color:#000000" fill="#1a1a1a" d="m374.02 449.87s0.31777 14.3 1.2711 16.524c0.95331 2.2244-3.1777 6.3554-1.5888 10.804 1.5888 4.4488 12.711 4.131 13.029 5.7199 0.31777 1.5888-7.3087 20.655-13.346 24.468-6.0376 3.8132-16.524 11.44-15.571 16.842 0.95331 5.4021 14.935 11.44 14.935 11.44l35.59-48.301-22.562-41.946z"/>
    <path id="path4213" style="color:#000000" fill="#006680" d="m390.54 492.45s-15.253 19.702-23.515 30.824-17.795 37.179-22.562 44.488c-4.7666 7.3087-15.253 22.244-19.384 25.739-4.131 3.4955-2.8599 12.075-1.2711 16.524 1.5888 4.4488 11.757 65.461 11.757 65.461l34.319-8.5798s-13.029-22.879-14.935-35.908c-1.9066-13.029-5.0843-22.879-5.0843-22.879l5.7199-1.9066s-4.4488-3.1777-4.4488-5.0843 9.8509-15.571 13.029-17.16c3.1777-1.5888 53.703-60.059 53.703-60.059l15.571 1.2711s4.4488 0.31777 6.0376 5.0843c1.5888 4.7666 21.608 58.47 23.197 63.236 1.5888 4.7666 6.0376 15.888 6.0376 15.888s-3.1777 0.63554-4.4488 3.4955c-1.2711 2.8599-0.95331 9.5331-0.95331 9.5331s-2.5422 4.4488-1.5888 6.0376c0.95331 1.5888 7.3087 3.4955 7.3087 7.3087s6.6732 52.75 6.6732 52.75l27.01-4.4488s-11.44-42.899-10.169-47.665c1.2711-4.7666 3.8132-7.9442 4.131-9.8509 0.31777-1.9066-3.8132-7.6265-3.8132-7.6265s2.2244-5.7199 2.2244-7.6265-4.131-6.6732-4.131-6.6732 1.5888-29.235-2.8599-49.572c-4.4488-20.337-12.711-63.872-12.711-63.872s0.63554-14.935 4.131-22.244z"/>
    <path id="path3388" style="color:#000000" fill="#045" d="m484.72 538.88-23.938 0.9375s1.8953 9.2131 4.4375 11.438c2.5422 2.2244 19.708 4.4526 20.344 7.3125 0.63554 2.8599 3.1562 43.188 3.1562 43.188l-4.125 0.96875 6.9062 2.5625c-0.29016-0.35271-0.53125-0.65625-0.53125-0.65625s1.5738-29.225-2.875-49.562c-0.97961-4.4782-2.1545-10.172-3.375-16.188zm8.28 68.34l-1.0938 8.2188-5.7188-1.5938s3.8752 2.5087 6.8438 4.6875c0.38486-1.0098 2.0625-5.5199 2.0625-7.2188 0-0.96225-1.0514-2.655-2.0938-4.0938zm2.8438 16.625c-0.99257 2.982-3.1789 7.5506-4.5625 7.7812-1.9066 0.31777-4.125-0.31287-4.125 1.5938 0 1.9066 9.8438 49.906 9.8438 49.906l5.0938-1.4688c-1.6754-6.3511-10.721-40.906-9.5625-45.25 1.2711-4.7666 3.8385-7.9371 4.1562-9.8438 0.10248-0.61488-0.30861-1.6304-0.84375-2.7188z"/>
    <path id="path3366" style="color:#000000" fill="#045" d="m475.09 402.53-28.312 5.7188-42.25 104.22-33.375 22.875 28.281-14.625l-16.85 15.28 19.688-8.2812-54.969 67.062h-7.625s8.3276 4.149 11.688 7.2188c-0.15036-0.30501-0.25-0.6077-0.25-0.875 0-1.9066 9.8536-15.567 13.031-17.156 3.1777-1.5888 53.719-60.062 53.719-60.062l7.9375 0.65625 0.625-1.9375 1.1562 2.0938 5.8438 0.46875s4.4424 0.3272 6.0312 5.0938c0.23577 0.70731 1.5105 4.1136 2.4375 6.6562l2.3438-5.0938 7.3125 7.3125-7.9688-9.8438 4.47-41.31 27.82-2.75c0.5246-4.9942 1.5497-11.973 3.625-16.312 3.4955-7.3087 7.323-18.124 6.6875-25.75-0.52455-6.2946-8.2802-31.618-11.094-40.656zm-122.34 201.25c0.05 0.19085 0.0283 0.37236-0.0313 0.53125-0.95331 2.5422-14.938 3.8125-14.938 3.8125s10.812-0.31287 10.812 1.5938c0 1.9066 10.5 56.25 10.5 56.25l8.375-3.5c-3.84-7.28-11.13-21.96-12.52-31.47-1.91-13.03-5.06-22.88-5.06-22.88l5.7188-1.9062s-1.5715-1.1332-2.8438-2.4375z"/>
    <path id="path4121" style="color:#000000" fill="#1a1a1a" d="m475.7 409.51s7.9442 27.964 7.6265 38.768c-0.31777 10.804-7.3087 24.786-6.9909 30.188 0.31777 5.4021 4.131 8.8976 6.3554 8.8976s0.95331-5.4021 0.95331-9.8509 6.3554-26.057 5.4021-34.955c-0.95331-8.8976-8.5798-38.132-8.5798-38.132z"/>
    <path id="path3950" style="color:#000000" fill="#1a1a1a" d="m313.96 407.92s2.5422-8.5798 5.0843-10.486c2.5422-1.9066 30.824-5.4021 30.824-5.4021l13.029 40.992s-37.179 11.44-39.721 11.122c-2.5422-0.31777-9.2153-36.226-9.2153-36.226z"/>
    <path id="path3931" style="color:#000000" fill="#004f63" d="m308.55 403.79 68.321-10.804 4.7666 23.833-69.274 11.122z"/>
    <path id="path3969" style="color:#000000" fill="#045" d="m359.03 395.81-2.0625 0.34375c0.86063 2.6893 2.3801 6.7304 4.0312 7.9688 1.2168 0.91261 2.5664 1.377 3.6562 1.625-0.98575-0.69385-2.194-2.3572-3.3438-6.0938-0.39024-1.2683-1.1903-2.5673-2.2812-3.8438zm5.625 9.9375c1.1939 0.84036 2.0625 0.28125 2.0625 0.28125s-0.87543-0.0111-2.0625-0.28125zm-19.938-7.6875-2.75 0.4375c0.10442 0.18463 4.0903 7.2153 5.0312 8.1562 0.95331 0.95331 4.448 2.8701 3.8125 1.2812-0.44148-1.1037-3.7115-6.2137-6.0938-9.875zm-6.1875 1-1.75 0.25c0.81877 2.6214 2.3157 7.2704 3.2188 8.625 1.2711 1.9066 4.4688 2.8438 4.4688 2.8438s-0.33284-0.30649-2.875-4.4375c-1.307-2.1238-2.3458-4.9842-3.0625-7.2812zm-4.6562 0.71875-1.7188 0.28125c0.89979 1.5011 1.8125 3.2437 1.8125 4.0625 0 1.5888 4.4688 11.094 4.4688 11.094h2.5312s-2.5467-4.4424-3.5-6.0312c-0.68092-1.1349-2.4264-6.071-3.5938-9.4062zm-9.6562 1.5312-2.3438 0.375c1.6004 1.598 3.2188 3.3598 3.2188 4v8.5938l3.4688-3.5-4.3438-9.4688z"/>
    <path id="path4232" style="color:#000000" d="m452.19 425.72s-5.4021 7.0049 0 8.5938c5.4021 1.5888 26.369 4.7658 30.5 3.8125 4.131-0.95331 5.407-8.9062 1.5938-8.9062s-27.963-3.8178-32.094-3.5zm-1 13.281c-3.7388 0-7.4145 2.6988-5.0312 4.8438 0 0 6.9782 6.3592 12.062 7.3125 5.0843 0.95331 21.609 5.3855 24.469 4.75 2.8599-0.63554 6.3705-7.9322 2.875-8.25-3.4955-0.31777-15.27-2.5414-19.719-3.8125-4.4488-1.2711-6.994-0.95257-11.125-3.8125-1.03-0.71-2.29-1.03-3.53-1.03zm-5.3438 15.969s-6.0523 0.61936-4.7812 2.8438 7.3216 7.9578 14.312 10.5c6.9909 2.5422 22.869 6.974 25.094 6.6562 2.2244-0.31777 5.3859-5.401 2.8438-5.7188-2.5422-0.31777-7.3058-1.5934-15.25-3.5s-22.219-10.781-22.219-10.781zm-6.375 15.562s-2.2244 1.5776 0 4.4375 8.2805 7.9582 12.094 8.5938c3.8132 0.63554 29.864-2.2188 32.406-2.2188 2.5422 0-0.65625-6.375-0.65625-6.375s-21.592 1.276-29.219 1.5938c-7.6265 0.31777-14.625-6.0312-14.625-6.0312z"/>
    <path id="path4073" style="color:#000000" fill="url(#linearGradient3460)" d="m409.84 319.84-44.72 31.91l9.9062 21.812s7.5859 6.5601 9.4688 12.906-9.512 4.0396-9.4688 8.2188c0.2113 20.404 1.3319 61.555 1.7812 65.375 0.44939 3.8198 8.5521 16.859 10.125 18.656 1.5729 1.7976 2.0059 25.171 1.7812 26.969-0.2247 1.7976 7.8856 35.698 15.75 38.844 7.8644 3.1458 16.851 3.1532 22.469 0.90625 5.6174-2.247 15.275-30.33 15.5-34.375 0.22469-4.0446 1.125-26.281 1.125-26.281l-3.375-2.25s4.0446-0.009 4.7188-2.0312c0.68-2.02-0.9-4.5-0.9-4.5s14.6-53.688 14.375-58.406c-0.22469-4.7186-23.125-60-23.125-60l-5.4375-3.1875z"/>
    <path id="path4118" style="color:#000000" fill="#999" d="m422.66 356.25s-3.3572 0.67269-4.0312 3.5938c-0.67409 2.9211 3.125 11.896 3.125 13.469 0 1.5729-4.5 7.6562-4.5 7.6562s6.3066-6.5075 6.5312-7.4062c0.2247-0.89879-2.0194-2.271-2.4688-8.5625-0.44939-6.2915 1.3438-8.75 1.3438-8.75zm-19.78 12.13s4.2634 12.81 4.9375 15.281c0.6741 2.4717 4.2812 0.21875 4.2812 0.21875s-2.2322 0.0238-2.9062-0.875c-0.67409-0.89879-6.3125-14.625-6.3125-14.625zm-10.094 9.9062s1.3378 10.54 1.5625 12.562c0.2247 2.0223 0.20989 3.6056 2.9062 3.1562 2.6964-0.4494 5.8438-2.4688 5.8438-2.4688s-4.2515 1.131-5.375 0.90625c-1.1235-0.2247-4.9375-14.156-4.9375-14.156zm42.21 0.65s4.0625 33.725 4.0625 38.219 1.125 28.521 1.125 30.094c0 1.5729-2.7084 3.1444-4.2812 3.5938-1.5729 0.4494-3.375 4.7188-3.375 4.7188s5.8468-3.1265 8.0938-4.25 2.0431-3.8454 1.5938-9.6875c-0.4494-5.8421-4.2812-62.219-4.2812-62.219zm-17.281 4.5s-6.7619 4.503-6.3125 6.75 7.2128 40.225 7.4375 44.719 1.2468 26.859 1.3438 29.875c0.21848 6.7944-2.1384 3.9417-7.875 4.7188 0 0 7.0623 1.9967 9.6562 1.5625 3.7918-0.63476 0.8395-3.9975 0.6875-8.75-0.31734-9.9224-5.628-51.226-7.875-61.562s-2.0044-10.109-0.65625-11.906c1.3482-1.7976 3.5938-5.4062 3.5938-5.4062zm-32.812 0.21875s2.0134 8.3081 2.6875 9.6562c0.67409 1.3482 3.1562 1.375 3.1562 1.375s-0.90182 0.22167-2.25-2.25-3.5938-8.7812-3.5938-8.7812zm-2.4688 6.5312s-6.2872 2.0268-6.0625 3.375c0.22469 1.3482 6.5015 55.487 7.625 59.531 1.1235 4.0446 2.4881 17.757 2.9375 18.656 0.44939 0.89879 2.6875-0.6875 2.6875-0.6875s-12.592-73.028-11.469-75.5c1.1235-2.4717 4.2812-5.375 4.2812-5.375zm21.125 5.1562s-8.0834 1.5759-9.6562 2.25c-1.5729 0.67409-1.8184-0.44194-1.5938 0.90625 0 0 3.8184 29.426 3.5938 34.594-0.2247 5.168 4.07 23.835 4.9688 26.531 0.89879 2.6964 2.0163 10.082 0.21875 10.531-1.7976 0.44939-6.3125 0-6.3125 0s0.0268 1.1384 1.375 1.8125c1.3482 0.67409 7.8631 1.1101 8.3125-0.6875 0.44939-1.7976-4.2768-16.398-5.625-28.531-1.3482-12.134-5.4107-39.778-4.0625-42.25 1.3482-2.4717 8.7812-5.1562 8.7812-5.1562z"/>
    <path id="path3991" style="color:#000000" fill="#1a1a1a" d="m459.18 337.06s-19.384 14.3-22.562 17.16c-3.1777 2.8599-5.7199 10.486-5.4021 12.075 0.31777 1.5888 1.9066 3.1777 5.7199 1.9066 3.8132-1.2711 40.675-6.3554 43.852-3.8132 3.1777 2.5422 9.8509 19.066 9.8509 19.066s7.6265 0 7.3087-10.169c-0.31777-10.169-5.4021-15.571-7.6265-17.16-2.2244-1.5888-6.9909-0.63554-7.3087-3.4955-0.31777-2.8599-9.5331-15.571-13.664-17.16-4.131-1.5888-5.0843-1.2711-10.169 1.5888z"/>
    <path id="path4515" style="color:#000000" fill="#004f63" d="m263.75 404.12c8.3085-2.2981 23.158-4.0659 24.926-4.2426 1.7678-0.17678 4.773-3.0052 6.364-3.0052s4.9498 3.3588 4.9498 3.3588 6.5407-2.4749 8.1317-2.2981c1.591 0.17677 6.5407 4.773 6.8943 6.7175 0.35355 1.9445 0.53033 13.258 0.53033 13.258l-46.846 4.2426z"/>
    <path id="path4513" style="color:#000000" fill="#045" d="m204.35 390.51 8.4853 25.456 40.659 5.3033-23.688-29.875c-6.1872-1.7678-25.456-0.88388-25.456-0.88388z"/>
    <path id="path4458" style="color:#000000" fill="url(#linearGradient4402)" d="m215.15 381.41c10.736 15.779 10.479 27.16 15.719 40.741l38.184-4.4194-11.856-42.023z"/>
    <path id="path4501" style="color:#000000" fill="url(#linearGradient4503)" d="m215.15 381.41c10.736 15.779 10.479 27.16 15.719 40.741l38.184-4.4194-11.856-42.023z"/>
    <path id="path4416" style="color:#000000" fill="#5f6c6f" d="m267.64 362.58s-0.17678 6.7175-0.17678 7.4246c0 0.70711-1.2374 0.17677-1.2374 0.17677l-29.698 2.1213-1.4142-10.783z"/>
    <path id="path4556" style="color:#000000" fill="#a40" d="m204.5 383.49c3.125 6.5 5.75 19.875 5.75 19.875l17.125-2.125-6.25-18.25z"/>
    <path id="path4560" style="color:#000000" fill="#520" d="m221.12 383c-4.9019-0.21865-9.6066 1.0463-14.375 2l4.25 10.375h1.375l-4-8.375 13.855-1.0442z"/>
    <path id="path4476" filter="url(#filter4454-9)" style="color:#000000" fill="#a6babf" d="m226.09 382.68 7.6545 25.577 2.8004-0.1867-8.588-24.644z"/>
    <path id="path4210" style="color:#000000" fill="url(#linearGradient4394)" d="m139.3 349.14s27.4-4.773 39.421-3.8891l28.638 22.804 18.473 0.61872 5.0381 9.2808 4.9498 1.7678-4.773 6.8943-3.3588-1.9446-36.239 2.8284-38.007-7.6014z"/>
    <path id="path4558" style="color:#000000" fill="#f95" d="m202.81 386.6 4.3125 16.512 7.5-0.5-0.125-1.375-8.1562-15.062z"/>
    <path id="path4565" style="color:#000000" fill="#a40" d="m206.38 386.14 3.4375 9.9688 1.25-0.4375-3.8125-9.6562z"/>
    <path id="path4214" filter="url(#filter4454-3)" style="color:#000000" fill="#a6babf" d="m157.33 370.89 6.5407-1.2374 30.936-1.591 4.0659 0.88389-4.2426-1.9446-31.466 0.88389-6.8943 1.7678 1.9445 1.9446z"/>
    <path id="path4357" style="color:#000000" fill="url(#linearGradient4398)" d="m174.5 382.36s7.6486 0.76256 14.543 1.8232c1.4142 0 1.2071 4.4268 1.2071 4.4268s-2.5 1-3 4.5 2.25 12.5 4.5 13.5 15 0 17-0.75 22.05-3.9367 22.05-3.9367c1.4936 3.1738-1.9469 7.1616-1.9469 7.1616s-10-2.1213-13-1.6213-17.098 3.409-20.104 4.6464v4c-0.53033 1.7678-2.4693 3.4815-4.5 2-3.6009-2.627-21.25-28.5-21.25-28.5z"/>
    <path id="path4407" fill="#5f6c6f" d="m192.28 388.46-3.2344 1.0561-17.954-0.39604 1.0561-2.7723z"/>
    <path id="path4355" style="color:#000000" fill="url(#linearGradient4400)" d="m160.75 377.62-5.25 14.25 14.25 1.5s6.25-3 6.5-4.75c0.009-0.0602 0.0215-0.18125 0.0313-0.25l16.062 0.21875-0.40625-4.875-16.453-4.4844c-1.23-0.61-14.73-1.61-14.73-1.61z"/>
    <path id="path4185" style="color:#000000" fill="#666" d="m127.25 369.36c-0.5 7.25 1.75 16.5 4 20.5s9.5 5.25 11 5.25 15.25-2.25 15.25-2.25c2.25-1.5 5.6276-8.8585 5.25-13.75-0.76957-9.9684-5-12-5-12z"/>
    <path id="path4212" style="color:#000000" fill="#666" d="m155.21 364.52 44.017-1.591v2.8284l-44.194 1.2374z"/>
    <path id="path4177" style="color:#000000" fill="#917c6f" d="m122.33 353.74c-0.93988 1.5384-4.9498 10.253-0.7071 15.203 2.9466 3.4377 10.607 1.591 10.607 1.591l3.8891-4.9498s4.6783 10.232 10.689 8.6406c3.8969-1.0315 9.4638-1.0392 11.585-2.4534 2.1213-1.4142 1.0493-11.19-1.4142-15.91-2.6321-5.0431-10.607-10.96-13.081-10.96-3.5917 0.56891-19.42 5.3246-21.567 8.8388z"/>
    <path id="path4296" d="m424.22 344.72-56.062 13.688 6.3438 13.969 1.125 1.75c1.1038 1.002 4.5378 4.2289 7 8.2812l8.875-2.75 2.0625 8.4062h1.0938s-3.8076-8.4217-2.2188-9.375c1.5888-0.95331 9.8438-9.2188 9.8438-9.2188l5.75 15.25-4.3125-15.25 14.469-8.7188 2.375 7.4688 0.46875-8.5938s-0.45105-3.1717 2.25-4.125c1.5353-0.54186 4.3087-0.92238 6.5-1.1562l-5.5625-9.625z"/>
    <path id="path4157" style="color:#000000" fill="#deaa87" d="m300.75 326.36s-5.25 15-3.25 19 13 10.25 14.5 11 12.5 9 12.75 13-5.25 15-3 20.75 14.75 14 20 13 27-1 31-6.25 6.25-16 10.25-20.25 12.25-10.25 15.75-13 5.25-25 5.25-25l-15.5-35.5-85 9.25z"/>
    <path id="path4171" style="color:#000000" d="m316.5 355.36s11.25 9.5 12 13.75 1.75 7.25 1.75 7.25l13.5 1.75 13.25 0.25 4.25-2.5-3-10.25-9.75-8.25-21.25-4.25z"/>
    <path id="path3478" d="m388.5 303.12-85 9.25-2.75 14s-2.6148 7.5294-3.4375 13.344l5.5938-1.4375s0.88992-4.4881 2.6875-4.9375 5.625-2.25 5.625-2.25 0.00011-2.7009 4.7188-3.375c4.7186-0.67409 10.781 5.625 10.781 5.625s6.2768 1.57 7.625 2.4688c1.3482 0.89879 2.0312 7.4062 2.0312 7.4062s0.63953 0.37455 0.75 0.4375l-5.6875 0.25-7.1875-2.7188-4.9688 2.0312-4.0312 4.0312-5.8438-2-3.8125-2.7188-2.9375-0.4375 7.625 12.344-1.0938-4.9375s5.1533 1.5684 7.625 1.3438c2.4717-0.22469 5.8646-3.5938 7.4375-3.5938s11.452 1.3497 13.25 1.125c0.96491-0.12061 2.1357-1.4958 3.0625-2.7812 2.4374 1.3756 5.2846 2.9747 7.0312 3.9062 3.3705 1.7976 17.531 17.531 17.531 17.531s-9.8884-17.31-10.562-19.781c-0.67409-2.4717 10.796-10.33 12.594-9.6562 1.7976 0.6741 9.2188 3.8125 9.2188 3.8125s7.4033 16.207 9.875 16.656c2.4717 0.44939 6.9776 1.7858 4.2812 5.1562-2.6964 3.3705-10.341 12.121-12.812 18.188-2.4717 6.0668-3.5864 13.728-7.4062 15.75-2.8277 1.497-21.965 4.3385-31.75 5.7188 1.209 0.29881 2.305 0.41809 3.1875 0.25 5.25-1 27-1 31-6.25s6.25-16 10.25-20.25 12.25-10.25 15.75-13 5.25-25 5.25-25l-15.5-35.5zm-45.844 79.188-9.4375 1.125-6.0625 1.3438s0.23367 3.1444 2.0312 3.5938c1.7976 0.44939 11.243-2.2291 15.062-0.65625 3.8198 1.5729 5.3675-0.0134 4.4688-0.6875-0.89879-0.6741-6.0625-4.7188-6.0625-4.7188z" fill="#d38d5f"/>
    <path id="path4167" style="color:#000000" fill="#e6e6e6" d="m318.5 354.11v5.25c0 1 5.75 3.25 8 2.5s6-4 6-4 1.5 4.25 3 4 18-1 18-1-7.25-6.75-12-7-13.75-2-16.75-1.25-6.25 1.5-6.25 1.5z"/>
    <path id="path4131" style="color:#000000" fill="url(#linearGradient4684)" d="m305.5 280.86s21.75-19 35.5-22.75 36.75-8.5 46.25-6.75 19.75 3.75 26.625 7.375 18.375 14.875 19.875 18.625 2 7.75 1.5 9.5-5.5 4.75-5.5 4.75l-8-6s-5.5-10.25-7-12.5-8.25-1.75-12.75 0.75-22.75 15.5-27 19.25-12.25 12.75-12.25 12.75z"/>
    <path id="path4108" style="color:#000000" fill="#fff6d5" d="m364.5 292.36s3.25 3.5 3.75 6-3.25 18.5-3.25 18.5l-5.5-3z"/>
    <path id="path4106" style="color:#000000" fill="#ffe680" d="m279.5 287.11s1.5-5.75 3.75-6 19.5-5.75 21-5.75 5.25 1.5 6.25 1.5 17.5-1 17.5-1 6.5-2.75 8.75-2.75 10.5-0.25 12.75 2.75 7.25 7.75 9 9 7 8 7 8l-3 16-79.25-11.5z"/>
    <path id="path4169" style="color:#000000" fill="#e6e6e6" d="m338.75 377.61 13-1.5 3.75 0.75v-1.75l6.25-1 2.25 8-7.5 4.25-4.75-5.25z"/>
    <path id="path4100" style="color:#000000" fill="#d4aa00" d="m284 303.61c-3.4937-4.4059-8.75-14.5-4.75-17.75s7-4.75 10.75-3.75 7 2.75 7 2.75 21.5-1.75 23.5-1.5 3.75-4 6-4.25 8.5 1.5 9.75 2.25 5.5 8 7.75 8 17.25 8.75 17.25 8.75l3.5 14.75-75.25-7.25s-3.6819 0.29281-5.5-2z"/>
    <path id="path4159" style="block-progression:tb;color:#000000;text-transform:none;text-indent:0" fill="url(#linearGradient4336)" d="m312.28 317.66c-0.875 4.1979-1.75 8.3958-2.625 12.594-4.196-0.0725-7.2216 3.582-8.1686 7.3775-1.89 3.6661 1.2383 7.275 5.0907 6.2966 2.4121 2.5808 6.0746 5.2733 9.7821 3.802 2.9434-1.7963 4.456-5.8996 8.4868-5.6729 2.6988 1.9651 6.4577 4.1699 9.7782 2.2108 4.1947-1.7932 3.4259-7.5558-0.5848-9.1024-2.7119-1.7997-8.654-4.1722-9.7908 0.46343 3.1667-0.81554 6.4367-0.73855 9.1635 1.5454 4.7242 1.9578 0.17485 7.5068-3.4726 5.5139-2.7307-1.3003-5.5437-4.0453-8.6594-1.732-3.3398 0.6434-4.1385 6.1176-8.0179 5.0419-3.2491-0.34503-4.5818-4.4362-7.9457-4.1101-4.5899 0.005-1.1108-6.7014 0.88273-8.3735 1.2099-1.8593 4.873-0.2616 5.2681-2.1982 0.91667-4.4167 1.8333-8.8333 2.75-13.25-0.64583-0.13542-1.2917-0.27083-1.9375-0.40625zm27.469 23.688c9.5279 8.1461 18.178 17.308 26 27.094 2.6739 2.593 2.7861 6.2938 3.6226 9.6796 1.2116-0.96701 1.7178-6.9432-0.71584-9.0862-5.5483-7.6004-12.09-14.425-18.702-21.098-3.0538-2.6792-6.5957-4.7541-10.204-6.5891zm-29.995 7.7337c-2.4365 2.5129 0.51377 6.2075 2.7837 7.8248 2.1753 1.3695 4.9483-1.5305 7.3923-1.5011 4.7983-1.4408 9.8784-2.0025 14.817-0.94172 4.1163 0.78264 8.3738 1.3738 12.244 3.0221 5.0006 3.0641 9.87 7.0645 11.994 12.711 1.4261 3.4034 3.3426 6.8868 3.2446 10.669-1.7477 2.5122-6.3776 5.7605-7.7131 1.237-3.8085-4.1603-9.8727-4.1679-14.885-5.8727-3.9389-0.82703-8.7529-2.5932-12.32 0.1497-2.4839 2.0733-5.3192 7.2187-1.375 9.1875 3.829 0.82155 7.3229-1.212 11.144-1.786 4.0855-0.61376 7.0735 0.66057 10.419 2.0828-0.76961-4.3479-5.9418-4.6184-9.6363-4.1914-3.6787 0.42516-7.0546 1.6073-10.663 2.056-3.2915-1.5923 1.5412-7.57 4.686-6.7983 5.7595 0.35574 11.23 2.4752 16.811 3.7818 3.6312 0.5575 4.8122 4.6555 7.577 5.9897 3.1727-0.74674 7.7439-2.5997 8.0363-6.3341-0.49908-5.3165-3.0711-10.196-5.4365-14.899-3.0702-4.3218-7.343-7.8351-12.031-10.277-6.2356-1.8356-12.71-3.3494-19.243-3.2723-4.7592 0.41065-9.3621 1.8259-13.882 3.3035-2.4743-1.3427-2.7168-4.1163-3.9641-6.1414z"/>
    <path id="path4098" style="color:#000000" fill="#504" d="m285.63 329.74c0.5 2 4.9424 4.5533 8.6924 4.5533 0 0 5.5774-0.16402 7.9675-1.4142 4.5328-2.371 6.932-9.8211 10.821-10.882 3.8891-1.0607 8.9779 2.0429 8.9779 2.0429s7.7782 8.1317 12.021 10.607c4.2426 2.4749 14.849 4.9498 20.506 2.1213 5.6569-2.8284 10.607-8.1317 10.607-8.1317l-13.435-17.678-47.376-3.8891z"/>
    <path id="path4102" style="color:#000000" fill="#806600" d="m325.25 285.11c-0.92723 1.084-0.92292 4.1498 0.5 4.25 4.5793 0.32237 8 2.25 8.75 1s0.5-4.75-2.75-5.5-5.0906-1.3977-6.5 0.25z"/>
    <path id="path4096" style="color:#000000" fill="url(#linearGradient3472)" d="m305 288.36c-6.7987-0.0148-16.5 2-20 4s-6 7.5-1 11 8.5 9 6.5 13-8.5 12.5-5 14 12 4 15.5-0.5 7.5-11.5 12-10.5 7.5 5.5 13 10 17 7 23.5 5.5 16.5-8.5 16.5-13 0-19.5-17-24.5-29.03-8.9673-44-9z"/>
    <path id="path4104" style="color:#000000" fill="#806600" d="m289.78 285.35c1.0227 0.68545 1.5331 3.1263 0.25954 3.478-4.0986 1.1319-6.8774 3.3199-7.7672 2.4684-0.88984-0.85147-1.2503-3.6848 1.5712-4.9029 2.8214-1.2181 4.3819-2.0854 5.9365-1.0435z"/>
    <path id="path4135" style="color:#000000" fill="url(#linearGradient4686)" d="m369 299.61 6.25 17.25 49.5-33.5s-2.8573-9.1265-8.25-10.25l-11 1z"/>
    <path id="path4133" style="color:#000000" fill="#a6babf" d="m370.5 303.86c0.25-1 14.75-12 21.25-16.5s11.213-8.8604 17.75-11.5c2.9837-1.2048 9.4747-1.8482 9.4747-1.8482s-4.2439-1.6518-5.7439-2.4018-9.6771 0.34818-13.177 1.8482c-3.5 1.5-32.804 24.902-32.804 24.902z"/>
    <path id="path4110" style="color:#000000" fill="#ffe680" d="m367.75 295.61s-2.7657 13.501-2.5 16.5c0.26584 3-1.4654 15-4 15 0 0 0.25 4.25 2.5 4.5s7.25-2.25 8-4.5-2.5-6.5-2-7.75 5-0.75 5-1.75 1.1899-6.5193 1.5-9c0.5-4-5.5-12.25-8.5-13z"/>
    <path id="path4137" style="color:#000000" fill="url(#linearGradient4688)" d="m404.5 254.36c-1.005 1.4351 2.25 4.75 2.25 4.75l0.5 1.75 5 2.5 7.5-0.5 1.25-1.75s-5-5-8.5-6-6.4636-2.9438-8-0.75z"/>
    <path id="path4139" style="color:#000000" fill="url(#linearGradient4690)" d="m376.62 326.61c1 6.75 6.75 20 15 25s27.5 5.5 34.5 0.5 16.25-15.25 18.5-22.5 2.25-17.5-4-28.25-9.75-17.5-21-16.75-26.75 12.75-30.75 16c-9.5271 6.5315-13.774 13.483-12.25 26z"/>
    <path id="path4145" style="color:#000000" fill="#5e6b6e" d="m381 328.61s-1.5-5.25-0.75-6.75 5.25 1.25 9 2 14.852 4.5476 22.5 4.5c9.2016-0.0572 18.914-1.3577 27-5.75 2.6925-1.4626 6.5-6.5 6.5-6.5l0.25 9s-10 7.75-16 10-20.5 4-27.25 2.75-21.25-9.25-21.25-9.25z"/>
    <path id="path4143" style="color:#000000" fill="#a6babf" d="m380.75 327.61s10.632 5.9624 16.5 7.25c9.0365 1.9829 18.716 2.4953 27.75 0.5 6.6963-1.479 18.5-9 18.5-9s-6.7816 7.352-11.25 9.25c-9.3427 3.9684-20.186 4.8197-30.25 3.5-6.7511-0.88527-17-5.75-19-7.5s-2.25-4-2.25-4z"/>
    <path id="path4141" style="color:#000000" fill="url(#linearGradient4692)" d="m446.25 317.36s-2.25 9.5-5.25 11.5-5 13.25-5 13.25 1.25 1 3 0.5 10.25-8.5 11.25-10 4.75-9 2.25-12-6.25-3.25-6.25-3.25z"/>
    <path id="path4147" style="color:#000000" fill="#85969a" d="m438.22 322.91c-1.3598 0.70991-2.7811 1.3262-4.2188 1.875l-0.34375 6.6875s-0.28054 1.228 1.7188 1.2812c1.9993 0.0533 1.7812-1.6875 1.7812-1.6875l1.0625-8.1562zm-50.438 0.59375 0.96875 9.625s-0.25 1.75 1.75 1.75 1.75-1.25 1.75-1.25l-0.25-9.06c-1.096-0.29446-2.0714-0.55178-2.75-0.6875-0.47796-0.0956-0.97574-0.22737-1.4688-0.375zm42.031 2.625c-1.384 0.38091-2.8005 0.72918-4.2188 1l-0.4375 8.4688s-0.28054 1.228 1.7188 1.2812c1.9993 0.0533 1.7812-1.6875 1.7812-1.6875l1.1562-9.0625zm-29.594 0.5625v9.0312s-0.39667 1.7108 1.5938 1.9062c1.9904 0.19546 1.8438-1.0625 1.8438-1.0625l0.65625-9c-1.3776-0.25612-2.7459-0.55637-4.0938-0.875zm17.78 1.41c-1.3673 0.10385-2.7345 0.18039-4.0938 0.21875l-0.3125 8.4375s-0.24993 1.2646 1.75 1.2812 1.7812-1.75 1.7812-1.75l0.875-8.1875z"/>
    <path id="path4189" style="color:#000000" fill="#483e37" d="m127.75 362.86s-3.875 1-3.625 3.25 4.125 4.25 4.125 4.25l5 0.25 3.5-8.25z"/>
    <path id="path4183" style="color:#000000" transform="matrix(.99341 -.11462 .11462 .99341 -43.079 17.787)" d="m141 376.24c0 6.5584-1.9588 11.875-4.375 11.875s-4.375-5.3166-4.375-11.875 1.9588-11.875 4.375-11.875 4.375 5.3166 4.375 11.875z"/>
    <path id="path4179" style="color:#000000" fill="#ac9d93" d="m144.25 370.61s-4.8722-9.3114-9-12.25c-2.9847-2.1248-7.1089-4.6372-10.5-3.25-2.6025 1.0646-3.9497 4.6154-4 7.4268 1.8862 8.9057 2.0882 1.8546 3.6893 0.71967 3-2 9.0607-0.14645 11.561 2.1036 2.5 2.25 6 7.75 7 7.75s1 0.75 1.25-2.5z"/>
    <path id="path4181" style="color:#000000" fill="#e3dedb" d="m125.75 351.86c2.6205-1.9583 12.498-5.9344 18-6.25l3 2c-7.1011 0.43607-13.389 2.732-16.125 5.875z"/>
    <path id="path4187" style="color:#000000" fill="#b3b3b3" d="m128.5 375.61s0.77043 9.2585 3.25 12.957c1.499 2.236 3 4.2929 6.5 4.7929s6.1945-1.5905 6.75-3.25c1.4142-4.2249 1-10.75 1-10.75l-4.5-0.25s-0.75408 9.3606-4.2249 9.5303c-4.4109 0.21565-5.1908-5.685-6.5251-11.53z"/>
    <path id="path4313" filter="url(#filter4454-34)" style="color:#000000" fill="#d9e2e4" d="m151.5 348.08 3.3588 2.4749 25.633-2.2981-5.8336-2.8284z"/>
    <path id="path4397" style="color:#000000" fill="#748387" d="m235.82 366.65 3.0052-7.955 30.229 0.35355s0.70711 3.3588-0.17678 4.0659c-0.88388 0.7071-4.5962 0.35355-9.8995 0.53033-5.3033 0.17677-15.38-0.35356-18.562 2.2981-3.182 2.6516-2.2981 4.2426-2.2981 4.2426z"/>
    <path id="path4359" style="color:#000000" fill="url(#linearGradient4396)" d="m206.3 347.73s23.335 1.2374 30.406 1.7678c7.0711 0.53033 25.102 4.2426 26.87 4.9498 1.7678 0.70711 5.4801 4.5962 5.4801 4.5962s-23.865 0.35356-26.693 0.70711c-2.8284 0.35355-5.6568 4.5962-3.3588 7.4246 2.2981 2.8284 28.108-0.35355 28.638 0.35355 0.53033 0.70711 2.2981 9.1924 1.4142 10.253-0.88388 1.0607-6.0104 0.70711-16.794 1.591-10.783 0.88389-15.645 1.9446-20.064-0.7071-4.4194-2.6516-12.64-17.147-12.64-17.147z"/>
    <path id="path4378" filter="url(#filter4454)" style="color:#000000" fill="#a6babf" d="m226.1 366.29s3.554 8.4386 5.1265 10.607c2.4231 3.3406 6.1872 3.0052 6.1872 3.0052l-3.3588 1.4142s-3.7123-0.53034-5.4801-3.5355c-1.0793-1.8348-4.2426-10.607-4.2426-10.607z"/>
    <path id="path4216" style="color:#000000" fill="#917c6f" d="m165.11 345.61s3.3588-2.4749 5.1265-3.0052c1.7678-0.53033 22.451-2.6516 25.456-1.9445 3.0052 0.7071 16.087 3.5355 18.562 5.1265 2.4749 1.591 9.0156 7.0711 10.253 7.7782s3.5355 10.96 3.182 12.551c-0.35355 1.591-1.9445 3.182-2.8284 3.3588-0.88389 0.17677 0.53033 3.7123 0.88388 4.9498 0.35355 1.2374 0.88388 3.182-2.4749 3.8891-3.3588 0.70711-15.38 0.53033-17.147 0.88389-1.7678 0.35355-3.5355-3.182-4.0659-5.4801-0.53033-2.2981-1.591-4.9498-2.8284-5.1265-1.2374-0.17677-2.6516-1.7678-2.4749-2.6516 0.17678-0.88388 1.9446-1.2374-4.0659-7.0711-6.0104-5.8336-15.91-11.49-18.208-12.374-2.2981-0.88389-9.3692-0.88389-9.3692-0.88389z"/>
    <path id="path4218" style="color:#000000" fill="#ac9d93" d="m171.3 343.31s4.9498-0.70711 8.4853 0.35355 17.501 13.258 17.854 13.965c0.35355 0.70711-1.4142 3.5355-1.4142 3.5355s-12.728-12.198-15.91-13.435c-3.182-1.2374-5.3033-2.6516-7.0711-2.8284-1.7678-0.17678-6.1872 0.17677-6.1872 0.17677z"/>
    <path id="path4254" style="color:#000000" fill="#ac9d93" d="m206.12 375.31s-1.2374-6.8943-1.7678-7.0711c-0.53033-0.17678-2.8284 0.53033-2.8284 0.53033s1.7678 6.5407 2.2981 7.2478c0.53033 0.7071 2.2981-0.70711 2.2981-0.70711z"/>
    <path id="path4273" style="color:#000000" fill="#483e37" d="m201.53 358.34s18.031-0.35355 19.092-0.17677c1.0607 0.17678 3.5355 3.0052 2.8284 4.0659s0.35356 2.6516 0.35356 2.6516l3.182 1.0607s-0.70711 2.4749-1.591 2.4749-3.7123 0.17677-5.1265-1.4142-1.591-4.5962-3.0052-4.5962-16.087 0.88388-17.678 0.88388 1.9445-4.9498 1.9445-4.9498z"/>
    <path id="path4292" style="color:#000000" fill="#e3dedb" d="m175.98 342.16s15.556-1.149 17.501-1.149c1.9446 0 7.513 1.9445 7.513 1.9445s-5.1597-1.0362-7.7782-1.149c-3.8926-0.16774-11.667 0.70711-11.667 0.70711z"/>
    <path id="path4311" style="color:#000000" fill="#e3dedb" d="m203.12 367.61s1.125-1.375 2-1.25 14.5 0.125 14.5 0.125 0.375 0.625 1 1-2.125-0.125-3.5-0.125h-10.5c-0.625 0-3.5 0.25-3.5 0.25z"/>
    <path id="path4435" style="color:#000000" fill="#748387" d="m237.41 379.9 31.82-2.1213-1.9446 1.7678-33.234 1.7678z"/>
    <path id="path4534" style="color:#000000" fill="#045" d="m298.22 399.34s0.89829 1.4188 2.3125 2.6562 0.15625 4.7812 0.15625 4.7812l-16.44 1.41s-1.7616-2.3036-2.4688-3.1875c-0.51908-0.64886-4.1092-2.2728-6.375-3.2812-3.432 0.56508-6.9164 1.2356-9.9062 1.9688l-0.65625 4.4375 3.8438 14.031 46.781-4.25 0.0313-1.3438c-0.0356-2.0441-0.15542-10.183-0.46875-11.906-0.21449-1.1797-2.1472-3.3223-3.9688-4.875l-0.28125-0.0937 2.2812 3.7188s-0.16881 1.6152-1.4062 1.9688c-1.2374 0.35355-7.0625 0.875-7.0625 0.875l-1.93-5.66-2.07-0.59c-0.23 0.09-0.59 0.22-0.59 0.22s-0.26185-0.19595-0.625-0.53125l-1.1562-0.34375z"/>
    <path id="path4494" style="color:#000000" fill="#006680" d="m243.78 404.3s10.253-5.8336 12.198-8.8388c1.9445-3.0052 5.1265-11.844 7.0711-12.374 1.9446-0.53033 7.6014 2.1213 8.6621 3.5355s0.88388 9.5459 0.17678 10.96c-0.70711 1.4142 0.7071 5.4801 2.8284 6.364 2.1213 0.88389 5.3033 0.53033 6.0104 2.1213 0.70711 1.591-0.53033 5.6569-0.53033 5.6569s3.5355-1.2374 4.2426-1.2374c0.70711 0 1.2374 2.4749 1.2374 2.4749s1.2374-1.9445 2.1213-1.9445c0.88388 0 3.7123-2.1213 4.773-1.2374 1.0607 0.88389 1.4142 3.3588 1.4142 3.3588l2.2981-0.17678s0-2.1213 1.0607-2.2981c1.0607-0.17678 2.6516 3.182 4.0659 3.3588 1.4142 0.17677 4.773-4.2426 4.773-4.2426s1.591-1.9445 2.4749-1.7678c0.88388 0.17677 3.7123 0.17677 3.7123 0.17677l1.4142 3.182s3.5355-0.88388 4.5962-0.88388 4.5962 3.5355 5.3033 6.5407c0.70711 3.0052 0.53033 20.683-0.88388 22.451-1.4142 1.7678-7.4246 3.0052-7.4246 3.0052s0.17678 1.9446-3.0052 2.1213c-3.182 0.17678-6.1872-0.88388-7.0711-0.88388-0.88388 0-5.1265 1.7678-7.0711 1.4142-1.9446-0.35355-5.1265-2.4749-5.1265-2.4749l-0.70711-1.4142-1.4142 0.88388-5.4801 0.70711-2.6516-1.591s0.53033 1.7678 0 2.2981c-0.53033 0.53033-8.6621 2.1213-9.3692 1.9446-0.70711-0.17678-3.3588-1.7678-3.3588-1.7678s-4.4194 1.7678-7.6014 1.7678-23.511-0.17678-24.926-0.17678c-1.4142 0-3.0052 1.4142-4.4194 1.2374-1.4142-0.17678-6.8943-4.5962-6.8943-4.5962s-4.9498 0.35356-6.8943-1.591c-1.9445-1.9445-3.5355-7.6014-3.5355-7.6014s-7.6014-5.1265-7.6014-6.364c0-1.2374-0.17678-3.3588-0.17678-3.3588s-3.5355-0.88389-4.5962-2.4749-3.8891-9.7227-3.8891-9.7227 9.7227-2.4749 12.198-3.3588c2.4749-0.88389 13.789 0.97227 13.789 0.97227 1.2122 0.71978 0.12043 0.87014 1.3258 0.35355 0 0-0.61871-0.61872 0.7955-1.5026s16.087-3.0052 16.087-3.0052z"/>
    <path id="path4613" style="color:#000000" fill="#006680" d="m378.46 410.31 9.3742-2.701 0.31777 0.63554 4.2899-2.3833 0.63554 0.95331 9.8509-4.131 0.79442 0.31777 2.701-2.3833 3.0188 0.47666 2.2244-3.9721 4.131 1.1122 0.79442 0.63554 2.5422-3.4955 1.43 1.43 1.7477-0.95331 6.3554-2.0655 1.1122 0.79442 12.552-3.8132 11.281 20.178-15.571 4.9254-2.5422-1.2711-2.2244 2.701-23.515 7.6265-1.2711-3.3366-1.43 1.43-1.1122 1.1122h-1.43l0.47665 1.5888-21.291 6.9909z"/>
    <path id="path4632" style="color:#000000" fill="#045" d="m428.66 393.78-0.3125 0.0937 0.5 1.0312 1.5625 0.78125-0.0625-1.2812-0.5625 0.1875-1.125-0.8125zm-9.5312 1.5938-0.21875 0.28125 1.1875 2.0938s2.3904 2.0753 3.3438 3.1875c0.95331 1.1122 4.9062 9.375 4.9062 9.375s0.79443-3.0388 0-4.4688c-0.64649-1.1637-4.2226-7.3183-5.8125-10.062l-0.21875 0.0625-1.75 0.96875-1.4375-1.4375zm-7.4688 1.75-0.21875 0.40625 0.875 1.1875s2.5207-0.0158 3.1562 0.9375c0.63554 0.95331 2.5625 2.875 2.5625 2.875l-1.0938-4.125-0.34375 0.46875-0.78125-0.65625-4.1562-1.0938zm21.625 1.4375s4.125 8.2575 4.125 9.6875 0.16942 5.3829-0.625 4.9062c-0.79443-0.47665-3.0207-1.8803-3.6562-1.5625-0.63554 0.31777-0.15888 1.5806 0 2.375 0.15889 0.79442-1.5938 2.8438-1.5938 2.8438l-1.75-2.375 0.3125 3.3438-18.25 5.4062s-1.2733-1.1352-1.75-2.4062c-0.47665-1.2711-3.1901-2.7007-3.0312-1.9062 0.15888 0.79443-1.4375 3.6562-1.4375 3.6562l-3.6562-1.5625 1.125 3.4688-11.906 4.625s-1.1273-8.1167-2.875-10.5-8.4062-6.3438-8.4062-6.3438l4.875 20.156 20.219-6.6562-0.46875-1.5938h1.4062l1.125-1.0938 1.4375-1.4375 1.25 3.3438 23.531-7.625 2.2188-2.7188 2.5312 1.2812 15.594-4.9375-1.375-2.4688-13.719 6.2812s1.1148-5.7078-0.15625-8.25c-1.2711-2.5422-5.0938-7.9375-5.0938-7.9375zm-28.688 3.6562-0.875 0.78125-0.78125-0.3125-0.625 0.25 9.6875 14.531-0.15625-7.1562 3 4.4375-3.6562-11.281-0.46875 9.5312-6.125-10.781zm-12.156 3.625-1.0312 0.59375 4.0625 8-1.7188-7.9062-0.65625 0.28125-0.65625-0.96875zm-4.5938 1.75-1.0938 0.3125 6.5 11.469-4.4688-11.469-0.625 0.34375-0.3125-0.65625z"/>
    <path id="path4607" style="color:#000000" fill="#1a1a1a" d="m324.76 416.19s-4.4488 3.8132-3.1777 7.6265c1.2711 3.8132 5.0843 24.468 6.6732 24.786 1.5888 0.31777 9.5331-0.31777 9.5331-0.31777s41.628-3.1777 42.899-2.8599c1.2711 0.31777 4.4488 3.1777 6.3554 2.8599 1.9066-0.31777 3.8132-9.2153 2.8599-15.888-0.95331-6.6732-5.0843-20.02-7.9442-22.244-2.8599-2.2244-8.262-4.7666-14.617-3.4955-11.619 4.0791-37.308 7.5086-42.581 9.5331z"/>
    <path id="path4496" style="color:#000000" fill="#006680" d="m194.28 390.69s-1.0607 7.7782-0.17678 10.253c0.88389 2.4749 2.4749 4.5962 4.4194 4.4194 1.9445-0.17678 17.678 0.35355 19.445 0 1.7678-0.35356 5.6568-4.2426 4.2426-7.2478s-3.3588-7.0711-5.8336-7.2478c-2.4749-0.17678-12.021-1.591-13.258-1.591-1.2374 0-3.7123 0.17677-5.2149 0.26517-0.53033-0.17678-1.7678-0.17679-1.7678-0.17679z"/>
    <path id="path4498" style="color:#000000" fill="#045" d="m199.91 411.72c0.47831 1.3613 2.6109 7.4164 3.5625 8.8438 1.0607 1.591 4.5938 2.4688 4.5938 2.4688s0.1875 2.1376 0.1875 3.375 7.5938 6.3438 7.5938 6.3438 1.5867 5.6805 3.5312 7.625c1.9445 1.9446 6.9062 1.5625 6.9062 1.5625s5.4608 4.4482 6.875 4.625c1.4142 0.17677 3.0233-1.25 4.4375-1.25s21.724 0.1875 24.906 0.1875 7.625-1.7812 7.625-1.7812 2.6366 1.6045 3.3438 1.7812c0.7071 0.17677 8.8447-1.4384 9.375-1.9688 0.53033-0.53033 0-2.2812 0-2.2812l2.6562 1.5938 5.4688-0.71875 1.4062-0.875 0.71875 1.4062s3.1804 2.1152 5.125 2.4688c1.9445 0.35356 6.1786-1.4062 7.0625-1.4062 0.88389 0 3.9118 1.0518 7.0938 0.875 3.182-0.17677 3-2.125 3-2.125s5.992-1.2322 7.4062-3c0.4984-0.623 0.85601-3.2636 1.0625-6.5-1.6224 0.25613-4.2825 0.58736-4.4062-0.0313-0.17678-0.88388-2.125-4.0625-2.125-4.0625s0.69823 6.5457 0.875 8.8438c0.17678 2.2981-4.2411 5.3027-5.125 5.6562-0.88389 0.35355-7.4062-0.90625-7.4062-0.90625s-1.0625-9.7044-1.0625-7.4062c0 2.2981-0.53125 8.125-0.53125 8.125s-5.3251 1.0625-6.5625 1.0625-2.1045-1.5965-2.2812-3.1875c-0.17678-1.591-1.6072-2.4688-3.375-2.4688s-0.34375 3-0.34375 3l-6.5312 0.1875s0.54105-4.4305 0.1875-6.375c-0.35355-1.9446-1.2653-3.3545-4.0938-3.5312-2.8284-0.17678-1.7696 4.9519-1.0625 7.25s1.4375 3.7188 1.4375 3.7188l-9.9062 1.2188 0.1875-2.2812s2.1143 0.17493 1.9375-1.0625c-0.17677-1.2374 1.5928-3.7206 1.0625-4.7812-0.53033-1.0607-1.6082 0.88756-3.9062 2.125-2.2981 1.2374-1.3964 3.1688-1.75 4.4062-0.35355 1.2374-3.7313 0.72947-4.9688 0.90625-1.2374 0.17677-27.389 0.51685-29.688-1.7812-2.2981-2.2981-2.9902-6.7126-3.3438-9.1875-0.35355-2.4749-0.17862-4.7714-1.0625-5.125-0.88388-0.35356-2.3232-2.2947-2.5-4.0625-0.17678-1.7678 3.5331-4.4179 4.5938-5.125 1.0607-0.70711 0.0187-2.292-1.2188-2.4688-1.2374-0.17678-6 1.75-6 1.75l-1.9688-1.4062s-7.7742-0.1777-9.7188-0.53125c-1.9445-0.35355-13.25-3.7188-13.25-3.7188h-0.0313z"/>
    <path id="path4503" style="color:#000000" fill="#045" d="m272.41 390.69c-1.2233 2.2062-3.4043 6.0605-4.4062 7.0625-1.4142 1.4142-6.1955 2.493-4.7812 4.4375 1.4142 1.9445 4.076 4.0518 5.8438 3.875 0.9671-0.0967 4.1323-0.90084 7.0625-1.6875-0.49581-0.10484-0.96951-0.25552-1.4062-0.4375-2.1213-0.88388-3.5509-4.9295-2.8438-6.3438 0.4246-0.8492 0.64219-4.1216 0.53125-6.9062zm8.5 16.156c-0.31599 0.31889-0.74302 0.71241-1.4375 1.3438-1.9446 1.7678-5.6562 11.151-5.6562 14.156 0 3.0052-0.86243 9.542 0.375 9.7188 1.2374 0.17677 1.75-1.4375 1.75-1.4375l-1.4062-0.6875 0.1875-3.375 2.125 1.9688s0.17861-6.7332 1.0625-9.0312c0.65377-1.6998 2.386-5.7246 3.4375-8.1562-0.48358 0.16206-1.1562 0.375-1.1562 0.375s0.92857-3.0244 0.71875-4.875zm31.219 1.3438c-0.0314 0.48664-0.0389 0.94577 0.0625 1.25 0.35356 1.0607 3.1884 6.8689 3.7188 9.3438 0.53033 2.4749 1.5938 8.6875 1.5938 8.6875l1.4 0.53s-3.0116-13.992-3.7188-15.406c-0.0924-0.18475-0.1592-0.70492-0.25-1.4688-0.48041 0.11277-1.1562 0.25-1.1562 0.25l-1.4062-3.1875s-0.21493 0.0001-0.25 0zm-20.13 1.4c0.53497 0.91488 1.5436 2.8006 1.2812 3.7188-0.35356 1.2374-2.8312 6.7108-1.5938 8.125s3.5224 0.90349 4.4062-0.6875c0.88388-1.591 2.2901-5.8456 1.4062-6.9062-0.32212-0.38654-0.72629-1.0567-1.125-1.75-0.0828 0.45752-0.0937 0.875-0.0937 0.875l-2.3125 0.15625s-0.34559-2.4599-1.4062-3.3438c-0.15352-0.12793-0.34617-0.16994-0.5625-0.1875zm-7.56 0.91c-0.0982 0-0.24715 0.0214-0.4375 0.0625-0.23396 0.56587-0.4375 1.1189-0.4375 1.5 0 1.0607 2.0938 3.1991 2.0938 3.9062 0 0.70711-2.466 4.0545-0.875 5.4688 1.591 1.4142 5.6759 1.2463 4.9688-0.875s-3.0312-3.875-3.0312-3.875l-0.34375-4.6562c-0.40318 0.47316-0.71875 0.9375-0.71875 0.9375s-0.51164-2.4688-1.2188-2.4688z"/>
    <path id="path4508" style="color:#000000" fill="#045" d="m213.31 395.19c-0.69464 0.11911 0.14538 2.2746 0.0625 2.9375-0.0884 0.70711 0.17586 3.3393-0.53125 3.7812-0.70711 0.44194-3.625 0.28125-3.625 0.28125s-0.6322-2.4062-1.7812-2.4062c-1.0829 0-12.265-0.4992-13.625-0.5625 0.0523 0.67218 0.12935 1.2934 0.28125 1.7188 0.88389 2.4749 2.493 4.6143 4.4375 4.4375 1.9445-0.17678 17.67 0.35355 19.438 0 0.86126-0.17226 2.209-1.2229 3.2188-2.5625-0.73759 0.19542-0.97855 0.24699-1.9062 0.5-1.9445 0.53033-3.0795-0.5893-3.875-1.0312-0.79549-0.44194-0.004-2.5697 0.4375-3.7188 0.44194-1.149-1.4027-3.1982-2.375-3.375-0.0608-0.0111-0.10994-0.008-0.15625 0z"/>
    <path id="path4590" style="color:#000000" fill="#a40" d="m332 425.74s-3.25 0.625-4.125 2.5-0.625 7.125-0.125 8.75 4 10.25 4.5 11.125 5.125 2.5 5.125 2.5l0.75-0.125s1 2 1.875 2.25 7.375 1.875 7.875 1.75 1.625-0.875 1.625-0.875 1.125 1.25 1.75 1.375 5.875 0.25 6.375-0.125 0.875-1 0.875-1 1.625 1.25 2.625 1.375 7.5-1.125 7.5-1.125l0.625-0.875h2.75c0.625 0 4.5-1.25 4.5-1.25l0.625-1.375s2.625-0.875 3.5-1.125 3.75-2.5 4-3.25-6.25-16.875-7.25-19.25-5.5-6.5-6-6.625-1.5 0-1.5 0-0.75-2.125-2.125-2.375-6.875 1.375-7.625 1.625-1.125 1.125-1.125 1.125-0.25-0.75-1-0.875-5.875 0.875-6.875 1.25-1.25 1.375-1.25 1.375 0.125-0.375-1.25-0.375-5.625 1-6.25 1.375-0.875 1.625-0.875 1.625-0.75-0.5-1.75-0.625-5.125-0.125-5.625 0.375-1.5 1.875-1.5 1.875z"/>
    <path id="path4592" style="color:#000000" fill="#d38d5f" d="m367.53 418.22s-7.4688 1.5312-7.7188 2.2812 0.9375 4 0.9375 4 0.5-2.375 1.125-2.625 3.75-1.125 4.75-1.125 0.90625-2.5312 0.90625-2.5312zm-9.8125 2.1562s-5.5751 0.53754-6.8125 1.1562c-0.35355 0.35356-0.34375 1.6875-0.34375 1.6875l0.34375 1.9375s0.35003-1.0634 0.96875-1.5938c0.61871-0.53033 6.1875-1.6875 6.1875-1.6875l-0.34375-1.5zm-9.375 2.5s-4.4125 0.76608-5.0312 1.0312c-0.61872 0.26516-1.2188 0.40717-1.2188 0.9375 0.0231 1.2323-0.42148 1.716 0.46875 2.5625 0 0 0.0742-0.69378 0.78125-1.3125 0.70711-0.61872 5.3438-1.7188 5.3438-1.7188l-0.34375-1.5zm-9.5938 1.8438s-3.1184 0.22623-3.5938 0.25c-0.88388 0.0442-2.0938 2.2188-2.0938 2.2188l-0.0937 1.5s0.26792-0.97503 1.5938-1.5938c1.3258-0.61872 4.5938-0.78125 4.5938-0.78125l-0.4063-1.5938zm-7.375 2.125s-1.6884 0.24556-2.2188 0.6875c-0.53033 0.44194-1.5 1.4384-1.5 1.9688v1.75s0.002-1.2295 1.0625-1.4062c1.0607-0.17678 2.9062-0.53125 2.9062-0.53125l-0.25-2.4688z"/>
    <path id="path4602" style="color:#000000" fill="#502d16" d="m367.72 418c0.10599 0.53974 0.26819 1.2642 0.5 1.8438 0.35355 0.88388 5.9429 24.492 6.0312 25.906 0.0884 1.4142-0.62684 1.9375-1.6875 1.9375s-3.0063 0.99464-3.625 0.90625c-0.61871-0.0884-1.5063-1.618-2.125-3.5625-0.596-1.8732-7.1868-22.895-7.6875-24.5-0.0398 0.0745-0.125 0.21875-0.125 0.21875s-0.25-0.75-1-0.875c-0.0437-0.007-0.14691-0.00002-0.21875 0 0.36969 0.95189 0.98812 2.5909 1.25 4.0312 0.35355 1.9445 4.7875 17.697 5.4062 19.906 0.61872 2.2097 2.2839 4.8608 0.78125 5.6562-1.5026 0.7955-6.184 1.1509-7.1562 1.0625-0.97227-0.0884-3.0938-4.6893-3.0938-5.75 0-1.0075-4.4969-20.567-4.9688-22.625-0.065 0.13776-0.11391 0.24251-0.125 0.28125-0.0281-0.10126-0.22984-0.29681-1.1562-0.3125 0.36369 1.3303 0.78125 2.9486 0.78125 3.5625 0 0.97227 3.1777 20.517 3.5312 21.312 0.35355 0.79549 1.6651 2.5581 0.78125 3-0.88389 0.44194-5.2045 1.3116-6 0.78125-0.7955-0.53033-4.5-15.097-4.5-16.688 0-1.3396-1.2633-7.2312-1.7188-9.3438-0.0392 0.14145-0.0937 0.375-0.0937 0.375s-0.56266-0.37796-1.3438-0.5625c0.496 2.7793 3.1896 17.795 3.5938 19.25 0.44195 1.591 0.97856 4.7661 0.625 5.0312-0.35355 0.26517-3.184-0.26072-4.1562-0.4375-0.97227-0.17677-3.8964-6.0242-4.25-7.9688-0.35355-1.9445-2.6464-13.085-3-13.969-0.0154-0.0386-0.0465-0.0572-0.0625-0.0937-0.10156 0.13672-0.28125 0.375-0.28125 0.375l-0.625-1s-0.0811 0.0287-0.0937 0.0313c-0.14234 0.45875-0.30163 1.1019-0.1875 1.8438 0.17678 1.149 3.4375 17.156 3.4375 17.156l-4.47-0.28c0.72072 1.7449 1.3738 3.2948 1.5625 3.625 0.5 0.875 5.125 2.5 5.125 2.5l0.75-0.125s1 2 1.875 2.25 7.375 1.875 7.875 1.75 1.625-0.875 1.625-0.875 1.125 1.25 1.75 1.375 5.875 0.25 6.375-0.125 0.875-1 0.875-1 1.625 1.25 2.625 1.375 7.5-1.125 7.5-1.125l0.625-0.875h2.75c0.625 0 4.5-1.25 4.5-1.25l0.625-1.375s2.625-0.875 3.5-1.125 3.75-2.5 4-3.25-6.25-16.875-7.25-19.25c-0.1123-0.26671-0.27879-0.57229-0.46875-0.875 0.0282 0.51722 0.28802 1.4891 0.4375 1.9375 0.17677 0.53033 5.9107 15.214 5.4688 15.656-0.44194 0.44194-6.625 2.6562-6.625 2.6562s-4.9429-20.345-5.0312-20.875c-0.0596-0.35744-0.75133-3.045-1.2812-5.125 0 0 0.0006-0.0296 0-0.0313-0.0295-0.082-0.7776-2.0988-2.125-2.3438-0.008-0.001-0.0232 0.001-0.0313 0z"/>
    <path id="path4609" style="color:#000000" fill="#999" d="m370.2 406.81c-18.229 4.2444-42.581 9.2153-44.011 9.8509-1.43 0.63554-3.6544 2.701-3.6544 4.6077 0 1.9066 0.79443 5.2432 0.79443 5.2432s-0.95331-2.5422 0.47665-4.6077 3.9721-3.6544 6.6732-4.131c2.701-0.47666 36.702-9.3742 39.403-9.3742s6.9909 0.15889 6.9909 0.15889-4.4336-2.2692-6.6732-1.7477z"/>
    <path id="path3842" style="color:#000000" fill="#1a1a1a" d="m436.14 367.71c-1.3482 4.0446-2.8128 9.1564-2.0223 13.707 2.5583 14.724 13.032 35.053 21.122 39.547 8.0891 4.494 13.931 1.3482 15.279-1.7976 1.3482-3.1458 16.178-30.109 19.324-33.255 3.1458-3.1458-3.1458-19.324-8.0891-23.818s-18.425-12.134-23.818-11.235c-9.0493 1.9258-18.588 8.2575-21.796 16.852z"/>
    <path id="path3844" style="color:#000000" fill="#a40" d="m451.64 379.17c0.6741-1.3482 1.5729-1.3482 1.5729-1.3482s-0.6741-0.4494-0.2247-1.3482c0.44939-0.89879 5.3927-4.7186 5.3927-4.7186l1.3482-0.2247s-1.1235-1.1235 0-1.5729c1.1235-0.44939 3.3705-1.7976 3.3705-1.7976s1.6793 0.53809 2.6494-0.15536c1.1119-0.79483 1.574-2.8551 2.294-3.2151 1.3482-0.67409 13.707 4.2692 18.65 13.032 4.9433 8.7632 3.5246 7.3196 4.494 11.235 0.68776 2.778 0.89879 8.5385 0.89879 8.5385s-2.9211 8.9879-5.168 11.684c-2.247 2.6964-6.9656 3.1458-6.9656 3.1458s-1.5729 2.6964-3.1458 3.8198c-1.5729 1.1235-6.5162 2.6964-6.5162 2.6964s2.6964-7.8644-0.2247-18.2-12.583-17.302-15.954-18.425-3.1458-1.7976-2.4717-3.1458z"/>
    <path id="path3846" style="color:#000000" fill="#502d16" d="m469.84 374.69s5.7319 1.4622 7.875 3.3438c3.6592 3.2125 6.0027 7.9298 7.4018 12.594 1.2288 4.0962 1.3348 11.914 0.66068 12.812-0.67409 0.89878-4.0253 4.2797-4.25 3.1562-0.22469-1.1235-0.18502-11.038-2.9375-15.531-1.9745-3.2228-8.9688-6.9375-8.9688-6.9375s5.6406 4.6083 6.9688 7.8438c2.7055 6.5908 2.2485 19.996 1.125 21.344-0.67139 0.80567-3.9664 1.3633-6.5938 1.6875-0.33598 2.4464-0.84375 3.9375-0.84375 3.9375s4.9584-1.564 6.5312-2.6875c1.5729-1.1235 3.1562-3.8125 3.1562-3.8125s4.6905-0.45988 6.9375-3.1562c2.247-2.6964 5.1875-11.688 5.1875-11.688s-0.21849-5.7532-0.90625-8.5312c-0.77296-3.1222-0.077-2.9249-2.25-7.125 0.99893 4.5998 2.0622 9.7505 1.8125 10.25-0.44939 0.89879-1.8066 2.2485-2.0312 1.125-0.2247-1.1235-3.029-9.6634-6.5312-13.031-3.2561-3.1312-12.344-5.5938-12.344-5.5938z"/>
    <path id="path3885" style="color:#000000" fill="#d38d5f" d="m468.72 365.47s-1.5744 0.23367-1.125 2.0312c0.4494 1.7976 9 5.5938 9 5.5938s-4.7262-3.5953-5.625-4.7188c-0.89879-1.1235-2.25-2.9062-2.25-2.9062zm-5.625 3.5938-2.4688 1.3438 9.6562 3.5938s-4.9316-2.0075-5.1562-2.9062c-0.2247-0.89879-2.0312-2.0312-2.0312-2.0312zm-3.375 3.5625c-0.16589-0.009-0.32515 0.003-0.4375 0.0313-0.89879 0.2247-4.0312 3.375-4.0312 3.375l10.094 4.5s-7.8556-4.07-7.4062-4.9688c0.44939-0.89879 5.1562-2 5.1562-2s-2.2138-0.87299-3.375-0.9375zm-6.0625 5.5312c-0.1045 0.0165-0.17662 0.0688-0.21875 0.125-0.67409 0.89879 0.4375 2.9062 0.4375 2.9062s1.5893-1.3497 2.9375-1.125 6.5 1.8125 6.5 1.8125-8.0887-3.9656-9.6562-3.7188z"/>
    <path id="path3923" style="color:#000000" fill="#999" d="m435.91 378.27c0.4494 4.0446 1.5729 8.0891 2.6964 10.785 1.1235 2.6964 8.7632 15.279 8.7632 15.279s-7.6397-14.83-7.415-16.403c0.22469-1.5729 2.9211-3.5952 4.2692-2.4717 1.3482 1.1235 10.785 11.909 13.032 15.279 2.247 3.3705 3.8198 11.684 5.3927 13.032 1.5729 1.3482 3.8199-0.67409 3.3705-2.9211-0.44939-2.247-14.156-27.862-18.2-29.66-4.0446-1.7976-8.0891-3.8198-8.0891-6.2915 1.9323-8.2232 6.6054-14.878 15.709-22.178-9.0973 1.6878-20.269 14.412-19.528 25.548z"/>
    <path id="path4010" style="color:#000000" fill="#999" d="m440.63 353.55s21.122-15.954 22.694-16.403c1.5729-0.4494 5.3927 1.1235 5.3927 1.1235s-9.2126 3.8199-10.785 4.9433c-1.5729 1.1235-19.549 13.257-21.122 14.83-1.5729 1.5729 3.8199-4.4939 3.8199-4.4939z"/>
    <path id="path4029" style="color:#000000" fill="#999" d="m481.3 356.92s5.6174 0.2247 6.9656 1.1235c1.3482 0.89879 0.89879 3.5952-1.7976 2.6964-2.6964-0.89879-5.168-3.8198-5.168-3.8198z"/>
    <path id="path4140" style="color:#000000" fill="#a40" d="m390.75 483.2s16.628-1.1235 24.492-1.1235c7.8644 0 21.796 0.4494 22.47 1.5729 0.6741 1.1235 2.0223 8.3138 0.6741 9.4373s-3.8199 2.0223-3.8199 2.0223 2.247 1.1235 2.6964 2.0223c0.44939 0.89879 2.0223 7.1903 0.67409 8.5385s-3.3705 1.5729-3.3705 1.5729 1.7976 0.89879 2.0223 2.247c0.22469 1.3482-2.247 5.8421-2.9211 6.2915-0.67409 0.44939-2.4717 1.3482-2.4717 1.3482s2.247 0.67409 2.247 2.247-0.67409 7.415-1.5729 7.6397c-0.89879 0.2247-3.3705 0.89879-3.3705 0.89879s-0.22469 0.44939 0.6741 2.4717-0.89879 8.0891-2.247 9.2126-15.504 1.5729-16.403 1.7976c-0.89879 0.22469-7.8644 0-8.9879-0.6741-1.1235-0.67409-4.7186-7.8644-4.0446-8.9879 0.67409-1.1235 2.247-2.4717 2.247-2.4717s-4.2692-1.7976-5.168-3.8198c-0.89879-2.0223-1.3482-6.5162-1.3482-7.8644s0.67409-2.247 0.67409-2.247-1.1235 1.3482-2.0223-1.5729c-0.89879-2.9211 0.2247-7.1903 0.2247-7.1903s-1.7976-1.5729-2.6964-3.8199c-0.89879-2.247-0.89879-9.2126-0.89879-9.2126l1.7976-1.5729s-1.1235-0.22469-1.7976-2.9211c-0.67409-2.6964 2.247-5.8421 2.247-5.8421z"/>
    <path id="path4160" style="color:#000000" fill="#502d16" d="m436.66 483.22c-0.22711 0.50853-0.44801 1.0631-0.53125 1.5625-0.2247 1.3482 1.811 4.9271 0.6875 6.5s-24.713 1.5878-29.656 1.8125c-4.9433 0.2247-13.719-1.125-13.719-1.125s6.076 1.8066 11.469 2.0312c5.3927 0.2247 28.969 1.125 28.969 1.125s2.9494 6.2649 2.5 8.0625-7.6446 1.5997-17.531 1.375c-9.8867-0.2247-25.625-0.6875-25.625-0.6875s3.8096 1.8125 6.2812 1.8125c2.4717 0 31.259 0.44496 33.281 1.3438 2.0223 0.89879 3.811 2.4584 2.6875 4.0312-1.1235 1.5729-1.7992 3.3825-5.8438 4.2812-4.0446 0.89879-29.653 0.4494-32.125 0-2.4717-0.44939 4.253 2.0253 6.5 2.25s27.204-0.6994 25.406-0.25c-1.1215 0.28038 0.74741 0.21692 2.5625 0.125-0.41528-0.21707-0.78125-0.34375-0.78125-0.34375s1.7947-0.89436 2.4688-1.3438c0.67409-0.4494 3.1622-4.9331 2.9375-6.2812-0.2247-1.3482-2.0312-2.25-2.0312-2.25s2.0268-0.21432 3.375-1.5625-0.23811-7.6637-0.6875-8.5625c-0.4494-0.89879-2.6875-2-2.6875-2s2.4643-0.90776 3.8125-2.0312c1.3482-1.1235 0.0179-8.314-0.65625-9.4375-0.0955-0.15917-0.48978-0.30475-1.0625-0.4375zm-3.75 34.938c-0.49568 0.39001-0.97457 0.95301-1.25 1.6875-0.6741 1.7976-0.47773 5.3884-2.5 6.0625s-22.005 1.3438-25.375 1.3438c-3.3705 0 1.8111 1.3497 5.4062 1.125 3.3705-0.21065 16.399-0.62788 19.312 0.0625-0.0618-0.38245 0-0.53125 0-0.53125s2.4762-0.6503 3.375-0.875c0.89879-0.2247 1.5625-6.0834 1.5625-7.6562 0-0.49561-0.22566-0.89459-0.53125-1.2188zm-4 11.531c-0.71558 0.56233-2.0835 1.1364-2.2188 1.8125-0.2247 1.1235 0.46572 6.7634-1.7812 7.4375-2.247 0.67409-18.641 1.5566-21.562 1.7812-0.45277 0.0348-0.80316 0.12394-1.0625 0.25 2.1345 0.48196 7.47 0.6325 8.25 0.4375 0.89879-0.2247 15.058-0.68902 16.406-1.8125 1.3482-1.1235 3.1175-7.1965 2.2188-9.2188-0.12586-0.28319-0.1645-0.46291-0.25-0.6875z"/>
    <path id="path4184" style="color:#000000" fill="#d38d5f" d="m419.88 482.53c-9.195 0.0316-26.265 0.18193-27.781 0.6875-2.0223 0.67409-3.5938 1.7709-3.5938 3.3438s1.3438 2.25 1.3438 2.25-0.67853-3.3631 1.3438-3.8125 29.225-1.5684 33.719-1.3438c4.4939 0.2247 2.4538-1.125 0.65625-1.125-0.44939 0-2.6225-0.0105-5.6875 0zm-24.625 11c-1.5729 0-4.7203-0.004-5.8438 1.3438-1.1235 1.3482 0.65625 5.625 0.65625 5.625s1.1221-4.945 3.5938-5.8438c2.4717-0.89879 24.289 2.0372 25.188 1.8125 0.89879-0.2247 3.5907-1.3438 1.3438-1.3438-2.247 0-23.365-1.5938-24.938-1.5938zm4.5938 12.75c-2.5652-0.0491-6.2318 0.42321-6.625 1.4062-0.32497 0.81242 0.0459 3.4776 0.28125 4.9062 0.29714-1.5331 1.4572-4.4317 2.4062-4.9062 1.3482-0.67409 20.445 0.2247 21.344 0 0.89879-0.22469 4.0625-1.3438 4.0625-1.3438s-17.966 0.2247-20.438 0c-0.30896-0.0281-0.6648-0.0555-1.0312-0.0625zm-6.3438 6.3125c-0.12498 0.64484-0.10986 1.0706 0.15625 0.9375 0 0-0.0661-0.3905-0.15625-0.9375zm3.5 4.9688c-1.2534 0.0211-2.1005 0.24556-2.4375 1.5938-0.4494 1.7976 1.3438 5.8438 1.3438 5.8438s0.23368-5.1578 2.0312-6.2812c1.7976-1.1235 12.804 0.65625 15.5 0.65625 2.6964 0 6.75-1.7812 6.75-1.7812h-21.812c-0.50557 0-0.9572-0.0383-1.375-0.0313zm21.625 11.469s-9.2292 0.25-12.375 0.25-5.8334 0.43458-7.4062 2.9062c-1.5729 2.4717 1.125 6.2812 1.125 6.2812s-0.003-5.6206 2.4688-6.9688c2.4717-1.3482 7.8468 0.006 10.094-0.21875 2.247-0.2247 6.0938-2.25 6.0938-2.25z"/>
    <path id="path4259" style="color:#000000" fill="url(#linearGradient4338)" d="m481.1 481.97s-18.431-2.8599-24.468 4.7666c-6.0376 7.6265-3.4955 28.917-2.2244 35.908 1.2711 6.9909 1.2711 19.066 9.5331 22.562 8.262 3.4955 24.468 6.6732 25.104 8.262 0.63554 1.5888-2.8599 5.4021 1.2711 5.7199 4.131 0.31777 8.5798 1.5888 7.9442-2.8599-0.63554-4.4488-10.169-58.47-13.029-66.096-2.8599-7.6265-1.9066-6.9909-4.131-8.262z"/>
    <path id="path4261" style="color:#000000" fill="#a40" d="m479.06 489.34c-0.77767 0.0174-1.5721 0.0911-2.4062 0.25-6.6732 1.2711-11.125 5.7188-11.125 5.7188l1.5938 2.2188s-1.5885 0.005-1.9062 1.5938c-0.31777 1.5888 1.2812 7.625 1.2812 7.625l2.5312 0.96875s-1.5885 0.94767-1.9062 2.2188c-0.31777 1.2711 0.3125 7.9375 0.3125 7.9375l3.1875 0.9375s-2.875-0.63064-2.875 1.5938 0.96875 12.094 0.96875 12.094l4.4375 5.4062 22.25 8.25 4.4375-2.875s-1.0366-7.53-2.3438-15.938l-2.5-1.6875h2.25c-0.51323-3.2505-1.0527-6.4884-1.5938-9.5312l-2.67-3.25 1.8125-1.3438c-0.59485-3.0074-1.1625-5.4321-1.625-6.6875-0.15122-0.41044-0.26355-0.75805-0.40625-1.1562l-3.375-1.8438 2.3125-1.1875c-1.3666-4.0071-2.3543-7.094-3.3125-8.5312 0 0-3.9001-2.9029-9.3438-2.7812z"/>
    <path id="path4283" style="color:#000000" fill="#502d16" d="m485.72 490.66c1.559 2.7939 3.0307 5.8125 2.5625 8.7188l-19.344-3.5938s-0.66663 1.8184 0.90625 1.5938c1.5729-0.2247 17.969 4.9375 17.969 4.9375 0.80386 4.4925 2.8867 8.0043-0.21875 7.1875-2.91-0.77-14.6-2.7-14.6-2.7l-0.25 1.3438s7.201 2.0268 12.594 3.375c2.1544 0.53861 4.0586 1.4486 5.625 2.375 1.0118 3.5665 2.6113 8.6108-0.6875 7.5-5.17-0.89-15.28-2.46-15.28-2.46l-0.4375 1.3438s8.5329 1.5834 14.375 3.1562c1.1226 0.30225 2.1199 0.66417 3 1.0625 0.00039 4.1981 2.7188 14.112-1.4092 14.664-3.5952-1.7976-10.57-3.8334-13.716-4.5075-3.0778-0.65953-7.7623-1.9431-7.9688-2l4.3125 5.25 22.25 8.25 4.4375-2.875s-1.0366-7.53-2.3438-15.938l-2.5-1.6875h2.25c-0.51323-3.2505-1.0527-6.4884-1.5938-9.5312l-2.66-3.24 1.8125-1.3438c-0.59485-3.0074-1.1625-5.4321-1.625-6.6875-0.15122-0.41044-0.26355-0.75805-0.40625-1.1562l-3.375-1.8438 2.3125-1.1875c-1.3666-4.0071-2.3543-7.094-3.3125-8.5312 0 0-0.99629-0.75032-2.6875-1.4688z"/>
    <path id="path4310" style="color:#000000" fill="#d38d5f" d="m479.16 490.28s-5.7039 0.43977-8.625 2.125-3.5 2.7188-3.5 2.7188l3.0312 0.3125 9.0938-5.1562zm-11.031 7.5625c-0.10862 0.014-0.22824 0.0344-0.3125 0.0625-1.3482 0.4494-2.462 0.80806-2.125 2.1562 0.33705 1.3482 1.3438 5.8438 1.3438 5.8438l1.6875-0.46875s-1.9055-4.2515-1.3438-5.375c0.56175-1.1235 6.5-1.125 6.5-1.125s-4.1207-1.3036-5.75-1.0938zm2.1875 10.25c-0.0955 0.0107-0.17978 0.0344-0.25 0.0625-1.1235 0.44939-2.4688 0.10273-2.4688 2.125s-0.125 6.625-0.125 6.625 1.5752-0.23216 1.6875-0.90625c0.11235-0.67409-1.5543-5.151-0.0937-5.9375 1.4605-0.78644 6.7188-0.46875 6.7188-0.46875s-4.037-1.6605-5.4688-1.5zm-0.0313 11.5c-1.9099 0-2.1123 0.78352-2 2.4688 0.11235 1.6852 0.78125 8.7812 0.78125 8.7812s1.5625 0.67929 1.5625-0.78125-1.1242-7.189-0.5625-8.3125c0.56175-1.1235 6.8438-0.25 6.8438-0.25s-4.7151-1.9062-6.625-1.9062z"/>
    <path id="path4336" style="color:#000000" fill="url(#linearGradient3462)" d="m335.88 654.83s-7.6265 0-8.8976 2.5422-1.5888 6.3554 0.95331 6.6732c2.5422 0.31777 6.9909 3.8132 6.9909 3.8132l7.6265 35.908s-4.7666-1.2711-5.0843 0c-0.31777 1.2711-1.2711 4.131 1.5888 4.4488 2.8599 0.31777 9.2153 0 15.571 5.7198 6.3554 5.7199 8.5798 8.5798 11.757 8.262 3.1777-0.31777 18.431-11.44 18.431-11.44s-0.63554-15.253-1.9066-16.842c-1.2711-1.5888-3.4955-5.7199-3.4955-5.7199s0.95331-11.122-0.31777-13.346c-1.2711-2.2244-6.6732-1.5888-5.4021-3.1777 1.2711-1.5888 1.2711-11.44-0.63554-15.253-1.9066-3.8132-5.0843-6.0376-8.5798-6.0376s-28.599 4.4488-28.599 4.4488z"/>
    <path id="path4610" style="color:#000000" fill="#006680" d="m472.76 727.67-1.5729 8.7632s-2.9211 3.8198-2.9211 6.5162 13.032 6.5162 19.099 5.8421c6.0668-0.6741 25.166 1.3482 29.885-0.89879 4.7186-2.247 8.7632-4.9433 6.0668-6.9656s-6.7409-4.2692-8.9879-6.0668c-2.24-1.79-10.33-15.5-10.33-15.5l-24.043 1.7976z"/>
    <path id="path3432" style="color:#000000" fill="#045" d="m504 719.38-24.031 1.7812-7.2188 6.5312-0.71875 4.0625c2.5593-1.422 11.333-6.0625 17.031-6.0625 6.6732 0 15.885 0.0151 17.156 2.875 1.2711 2.8599 6.3438 6.0312 6.3438 6.0312s4.7711 0.9473 3.5 4.125-0.64913 7.3279-10.5 8.2812c-2.9283 0.28339-5.9999 0.93913-8.9062 1.75 7.849 0.23176 17.416 0.66942 20.594-0.84375 4.7186-2.247 8.7589-4.9465 6.0625-6.9688s-6.7218-4.2649-8.9688-6.0625c-2.24-1.79-10.34-15.49-10.34-15.49z"/>
    <path id="path4356" style="color:#000000" fill="url(#linearGradient3464)" d="m465.85 672.63s-1.2711-5.0843 1.9066-5.7199c3.1777-0.63554 12.711 5.0843 17.16 4.7666 4.4488-0.31777 14.3-2.2244 14.3-2.2244l0.31777-4.7666s5.0843-1.2711 7.3087 0.95331 4.131 34.319 2.8599 37.497c-1.2711 3.1777-3.1777 6.3554-3.1777 6.3554s4.4488 3.1777 4.7666 4.7665c0.31777 1.5888-5.0843 2.2244-4.131 3.4955 0.95331 1.2711 5.0843 6.6732 4.7666 8.262-0.31777 1.5888-7.9442-2.2244-12.075-2.8599-4.131-0.63554-14.3 0-17.795 1.9066-3.4955 1.9066-11.757 8.5798-11.757 8.5798s0-14.3 1.5888-16.842c1.5888-2.5422-2.2244-8.8976-2.8599-12.711-0.63554-3.8132 0.63554-9.5331 0.63554-11.122 0-1.5888-3.1777-16.842-3.8132-20.337z"/>
    <path id="path4486" style="color:#000000" fill="#808080" d="m390.19 741.16-3.6562 0.15625 0.84375 9.625 0.8125 1.6562c1.8112-1.2015 3.3438-2.2188 3.3438-2.2188l-1.3438-9.2188zm-9.875 0.5625-3.5625 0.0625-5.0938 0.21875 0.21875 12.75 1.5938 3c3.6008-0.1506 6.3393-0.27335 6.5938-0.3125 0.0609-0.009 0.16084-0.0311 0.25-0.0625l0.65625-2.2812-0.65625-13.375zm-21.625 0.875-4 0.1875-0.21875 13.094 2.3125 2.5312c2.4648-0.093 5.0767-0.19575 7.2812-0.28125l0.96875-1.6875-1.04-13.72-5.3125-0.125zm-12.875 0.59375-9.7188 0.4375 1.0625 13.25 1.4062 2.1875c2.3762-0.0851 4.2991-0.13159 6.6875-0.21875l1.5625-2.1875-1-13.469zm-17.85 0.81l-7.5 0.34375 0.96875 14.562 0.59375 0.75c1.7584-0.0594 3.954-0.15222 5.875-0.21875l0.8125-1.875-0.75-13.562zm-17.375 0.78125-10 0.46875 3.0625 14.688c0.88869 0.12661 1.6711 0.21875 2.2812 0.21875 0.68014 0 2.8075-0.0714 5.625-0.15625l0.65625-1.2188-1.625-14zm-18.29 0.84-8.19 0.38s1.5752 8.2947 1.6875 8.9688c0.0596 0.35738 4.3548 1.7967 9.0938 3.0625l-2.59-12.41z"/>
    <path id="path4465" style="color:#000000" fill="#808080" d="m280.65 731.72-4.4939 1.7976-0.67409 12.358 8.3138 0.67409s69.207-0.44939 79.992-1.5729 27.413-2.0223 27.413-2.0223-2.6964-13.482-3.5952-15.279c-0.89879-1.7976-6.5162 0.2247-6.5162 0.2247s-54.601 3.3705-59.769 3.8198c-5.168 0.4494-40.67 0-40.67 0z"/>
    <path id="path4358" style="color:#000000" fill="#333" d="m356.86 723.47c-17.795-0.31777-17.795 22.244-17.795 22.244h10.804s-0.63554-9.2153 6.9909-9.2153c7.6265 0 8.262 8.8976 8.262 8.8976l8.8976-1.2711s2.2244-19.384-17.16-20.655z"/>
    <path id="path4360" style="color:#000000" fill="#a40" d="m329.53 664.59s0.25616 1.8684 0.5625 3.5312c0.20003 1.0858 0.48617 2.5245 0.8125 4.0938 0.84706 0.64933 2.3438 1.6875 2.3438 1.6875s-1.1219 0.0977-1.875 0.53125c0.45195 2.1067 1.0063 4.5082 1.5625 6.9375 0.71832 0.48929 1.6197 0.99293 1.75 1.0625-0.20616-0.0299-0.71283-0.0143-1.375 0.53125 0.61272 2.6404 1.2054 5.2491 1.8438 7.8125 0.0759 0.0486 0.15421 0.10042 0.25 0.1875 0.87387 0.79442 0.96498 0.39308 0.25 1.1875-0.0167 0.0186-0.0736 0.10142-0.0937 0.125 0.98539 3.8894 1.9275 7.4116 2.6875 9.75 0.56689 1.7442 1.0481 2.8367 1.4375 3 0 0 8.273 0.0188 10.656-3 0.59389-0.75225 0.51338-3.2706 0.0313-6.625-0.005-0.005 0.004-0.0265 0-0.0313-0.14066-0.1492-0.44117-0.42941-0.5-0.5-0.39722-0.47666-2.1562-1.3438-2.1562-1.3438s0.48419-0.25113 1.4375-1.125c0.32256-0.29568 0.48147-0.58192 0.5625-0.84375-0.38702-2.0201-0.85435-4.1654-1.375-6.3438-0.99598-0.7679-2.2188-1.0625-2.2188-1.0625s1.0233-1.1171 1.5-1.5938c0.0193-0.0193 0.0142-0.0432 0.0313-0.0625-0.51466-2.0134-1.0249-3.979-1.5625-5.8125-0.006-0.0117-0.0256-0.0197-0.0313-0.0313-0.29046-0.59582-0.57417-1.0371-0.8125-1.1562-0.95331-0.47665-1.4375-0.25-1.4375-0.25s0.84497-0.84101 1.3438-1.5938c-1.2154-3.7934-2.3228-6.5188-2.9062-6.75-1.7912-0.70981-11.622-1.9742-12.719-2.3125z"/>
    <path id="path4402" style="color:#000000" fill="#502d16" d="m329.53 664.59s0.0407 0.34665 0.0625 0.5c1.9614 0.28739 12.033 1.775 12.25 2.2812 0.23832 0.55609 1.2812 4.535 1.2812 5.25 0 0.71498-1.1935 0.875-3.6562 0.875-2.0987 0-6.5386-0.65328-8-0.875 0.56912 0.41437 0.98768 0.73237 1.2812 0.9375 0.0213 0.009 0.0411 0.0218 0.0625 0.0313 1.2458 0.54721 2.6331 1.1094 3.375 1.1875 1.4438 0.1519 7.485 0.0685 8.0312 0.0625 0.29091-0.31466 0.64135-0.74056 0.9375-1.1875-1.2154-3.7934-2.3228-6.5188-2.9062-6.75-1.7912-0.70981-11.622-1.9742-12.719-2.3125zm14.969 10.625c0.0181 0.20071 0.0801 0.46592 0.28125 0.96875 0.47665 1.1916 1.125 5.8788 1.125 6.5938 0 0.71498-3.5102-0.38667-4.7812-0.625-1.2711-0.23833-7.151-1.1017-7.4688-0.625-0.31777 0.47665 1.75 0.78125 1.75 0.78125l10.875 1.6875c0.17133-0.18662 0.91519-1.0089 1.3438-1.4375 0.0193-0.0193 0.0142-0.0432 0.0313-0.0625-0.51466-2.0134-1.0249-3.979-1.5625-5.8125-0.006-0.0117-0.0256-0.0197-0.0313-0.0313-0.29046-0.59582-0.57417-1.0371-0.8125-1.1562-0.30744-0.15372-0.54065-0.24263-0.75-0.28125zm1.8125 9c0.003 0.0913-0.00006 0.18737 0.0625 0.8125 0.0794 0.79442 0.14721 5.7812-0.25 5.7812s-10.083-0.55347-10.719-0.15625c-0.11652 0.0728-0.11563 0.18471-0.0625 0.28125 0.0195 0.0161 0.0414 0.0121 0.0625 0.0313 0.20356 0.18505 0.35043 0.28949 0.46875 0.375 0.009 0.006 0.023 0.0254 0.0313 0.0313 0.54114 0.30021 1.25 0.5625 1.25 0.5625s7.6145 0.0794 8.25 0c0.38787-0.0485 1.6025 0.59772 2.4375 1.5 0.13822-0.0811 0.52419-0.30863 1.3125-1.0312 0.32256-0.29568 0.48147-0.58192 0.5625-0.84375-0.38702-2.0201-0.85435-4.1654-1.375-6.3438-0.87148-0.67191-1.7836-0.93311-2.0312-1zm1.75 9.5c0.4037 0.51024 0.70352 1.0754 0.625 1.625-0.23833 1.6683 0.3061 6.8332-0.25 7.4688-0.5561 0.63554-5.8942 1.4974-7.5625 1.6562-0.91655 0.0873-1.0522 0.12656-1.5625 0.1875 0.1279 0.19612 0.26234 0.32775 0.375 0.375 0 0 8.273 0.0188 10.656-3 0.59389-0.75225 0.51338-3.2706 0.0313-6.625-0.005-0.005 0.004-0.0265 0-0.0313-0.14066-0.1492-0.44117-0.42941-0.5-0.5-0.32403-0.38883-1.3702-0.93042-1.8125-1.1562z"/>
    <path id="path4424" style="color:#000000" fill="#d38d5f" d="m332.41 674.03c-0.33767 0.0812-0.71273 0.22289-1.0312 0.40625 0.0121 0.0562 0.019 0.13086 0.0313 0.1875 0.52651 0.10769 1.0839 0.22731 1.5312 0.40625 1.1235 0.4494 7.375 0.28125 7.375 0.28125s-3.2523-0.20647-4.9375-0.375c-1.0851-0.10851-2.144-0.54734-2.9688-0.90625zm1.75 8.4688c-0.23521 0.0684-0.51266 0.196-0.84375 0.46875 0.0197 0.0848 0.0429 0.16531 0.0625 0.25 0.51744 0.008 1.1382 0.0155 1.4375 0.0313 1.0673 0.0562 5.8133 0.78125 6.375 0.78125 0.56174 0-1.1708-0.6689-2.6875-0.78125-1.2277-0.0909-3.3842-0.55032-4.3125-0.75-0.009-0.002-0.0228 0.002-0.0313 0zm1.7812 9.3438c-0.0778 0.081-0.14534 0.16148-0.28125 0.3125-0.0167 0.0186-0.0736 0.10142-0.0937 0.125 0.0224 0.0886 0.0401 0.16177 0.0625 0.25 1.533 0.0764 6.5004 0.58743 7.25 0.4375 0.84262-0.16852-2.6764-0.5688-3.6875-0.625-0.86875-0.0483-2.6838-0.39393-3.25-0.5z"/>
    <path id="path3277" style="color:#000000" fill="#a40" d="m486.94 679.81c-8.0436 0.0397-15.777 1.0087-15.062 3.3125 0 0 0.25001 1.989 0.5625 4.6875l2.625 0.21875-2.4688 1.2812c0.21563 1.8424 0.50468 4.1155 0.78125 6.375l1.5312 0.28125-1.4375 0.5625c0.29116 2.3612 0.56068 4.5439 0.875 6.9062l2 0.65625-1.8125 0.625c0.37653 2.7781 0.75281 5.3249 1.0938 7.375l2.1562 0.71875s-0.93194 0.40409-1.9062 0.78125c0.30792 1.6746 0.57987 4.5575 0.78125 4.779 1.5888 1.7477 21.773-0.31513 24.156-1.904 0.47978-0.31985 0.94561-1.8197 1.375-4l-1.0625-1.0625 1.3125-0.21875c0.30573-1.7902 0.56249-3.9109 0.8125-6.1875l-0.84375-1.375 1-0.46875c0.25646-2.588 0.46818-5.2196 0.625-7.8125l-1-0.78125 1.0625-0.0937c0.12033-2.141 0.21835-4.1799 0.25-5.9688l-1.625-0.9375 1.6562-1c-0.01-2.3154-0.15027-4.0186-0.40625-4.5625-0.63554-1.3505-8.9877-2.2272-17.031-2.1875z"/>
    <path id="path3299" style="color:#000000" fill="#502d16" d="m503.94 681.97-1.375 0.5s0.31777 1.2941 0 2.4062c-0.31777 1.1122-28.594 2.375-28.594 2.375l3.3125 1.25 25.844-0.6875-0.40625-0.25 1.6562-1c-0.01-2.3154-0.15027-4.0186-0.40625-4.5625-0.005-0.0112-0.0249-0.0201-0.0313-0.0313zm0.40625 6.75-2.0938 1.2188s0.95067 1.7654 0.15625 2.7188c-0.79442 0.95331-27.188 3.1562-27.188 3.1562s3.9891 0.97402 6.5312 0.65625c1.8974-0.23717 14.038-1.2448 21.344-1.8438l-0.0625-0.0625 1.0625-0.0937c0.11571-2.0587 0.21472-4.0116 0.25-5.75zm-0.34375 7.125-1.9375 0.625s-0.15099 3.6352-0.46875 4.9062c-0.31777 1.2711-24.938 1.9062-24.938 1.9062s1.7496 0.97139 3.6562 0.8125c1.2597-0.10497 12.818-0.31547 22.094-0.46875l1-0.46875c0.24006-2.4224 0.44043-4.8811 0.59375-7.3125zm-0.75 9.25-2.5938 0.4375s0.79706 3.3279-0.15625 4.2812c-0.95331 0.95331-22.562 2.2188-22.562 2.2188s2.3799 1.2812 3.9688 1.2812c1.2415 0 13.29-1.0736 19.5-1.625l-0.28125-0.28125 1.3125-0.21875c0.30142-1.765 0.56582-3.8536 0.8125-6.0938zm-1.0938 7.5-2.7812 0.875s-0.0128 1.8904-1.125 2.8438c-1.1122 0.95331-17.945 2.2188-19.375 2.2188-0.28117 0-0.5422 0.14471-0.8125 0.3125 4.9604 0.75428 20.665-0.98476 22.75-2.375 0.46974-0.31316 0.92186-1.7684 1.3438-3.875z"/>
    <path id="path3321" style="color:#000000" fill="#d38d5f" d="m485.41 680.25c-2.701 0-11.763 1.2602-12.875 2.5312-1.1122 1.2711 0.15625 3.0312 0.15625 3.0312s-0.65135-1.2602 0.9375-2.5312c1.5888-1.2711 23.065-1.9296 24.812-2.4062 1.7477-0.47666-10.33-0.625-13.031-0.625zm3.25 8.625c-3.4695 0.24873-13.344 0.92814-14.688 1.0625-1.5888 0.15888-0.34375 4.3125-0.34375 4.3125l-0.0313 0.1875c0.23833-0.81925 0.82794-2.5779 1.7812-3.5312 0.9416-0.9416 9.1046-1.6968 13.281-2.0312zm-8.3125 8.25c-0.83249 0-1.6873 0.0847-2.4062 0.28125 2.6116-0.0328 5.7188 0 5.7188 0s-1.6045-0.28125-3.3125-0.28125zm-3.875 0.28125c-0.90118 0.0298-1.597 0.0768-1.875 0.15625-1.1122 0.31777 0.625 4.4688 0.625 4.4688s0.17169-1.2756 1.125-3.5c0.23833-0.5561 0.80137-0.91646 1.5312-1.125-0.4741 0.006-0.99249-0.0137-1.4062 0zm10.188 6.8438s-10.015 0.48155-10.969 1.5938c-0.95331 1.1122 0.96875 4.5938 0.96875 4.5938s0.47892-2.5362 1.75-4.125 8.25-2.0625 8.25-2.0625zm-2.0312 9.3438c-1.996-0.007-6.1521 0.0604-7.3438 0.65625-1.5888 0.79442-0.46875 3.8125-0.46875 3.8125s0.63781-1.7575 1.75-3.1875 7.1562-1.25 7.1562-1.25-0.42842-0.0288-1.0938-0.0313z"/>
    <path id="path3505" fill="url(#linearGradient3516)" d="m305 288.38c-6.7987-0.0148-16.5 2-20 4-1.5926 0.91005-2.9651 2.5338-3.5312 4.375 3.3973-1.9043 6.9204-4.5505 10.875-5.4375 9.0992-2.041 18.766-0.88442 27.969 0.625 8.7554 1.4361 25.406 7.9375 25.406 7.9375l5.75 20.031-22.906 0.3125-1.8952-7.4587-4.4375 0.3125-0.97978 2.0524-9.5312-0.625c-2.2645-5.8767-4.4714-9.1596-7.625-4.7812l-1.25 0.34375-2.5625 11.438h-12.781c-2.2463 3.7985-4.3216 7.88-2 8.875 3.5 1.5 12 4 15.5-0.5s7.5-11.5 12-10.5 7.5 5.5 13 10 17 7 23.5 5.5 16.5-8.5 16.5-13 0-19.5-17-24.5-29.03-8.9673-44-9z"/>
    <path id="path3518" d="m291.88 305.47s3.1458 4.0446 2.6964 7.1903c-0.44939 3.1458-7.1903 13.032-7.1903 13.032l7.415 1.1235s5.168-6.9656 5.3927-13.257c0.2247-6.2915-1.5729-10.336-1.5729-10.336z" fill="url(#linearGradient4294)"/>
    <path id="path4340" style="color:#000000" fill="#999" d="m459.94 485.23s-3.9604 3.1683-4.7525 9.241c-0.79208 6.0726 1.0561 28.515 1.8482 34.324 0.79208 5.8086 2.3762 7.1288 2.3762 7.1288l2.1122-3.1683s-6.6007-29.043-3.9604-36.436c2.6403-7.3928 2.3762-11.089 2.3762-11.089z"/>
    <path id="path4361" style="color:#000000" fill="#999" d="m337.69 657.23c3.7024-0.74047 12.909-3.0032 12.909-3.0032l2.6348-1.5803s-14.749 2.8004-18.016 2.9871c-2.1252 0.12143-3.6872-0.28004-4.9941 0.0934-0.99676 0.21511-1.698-0.25994-1.5258 1.1769 0.17222 1.4368 4.7916 1.1662 8.9922 0.32601z"/>
    <path id="path4369" style="color:#000000" fill="#999" d="m466.93 667.81s5.4126 2.1122 7.7888 3.0363c2.3763 0.9241 8.5809 3.3004 10.957 3.0363 2.3763-0.26403 8.0529-0.79209 8.0529-0.79209s-6.8647-0.79208-7.9208-0.79208-4.6205-0.52806-7.6568-1.7162-6.8647-3.1683-8.0529-3.3004c-1.1881-0.13201-3.1683 0.52806-3.1683 0.52806z"/>
  </g>
  <metadata>
    <rdf:RDF>
      <cc:Work>
        <dc:format>image/svg+xml</dc:format>
        <dc:type rdf:resource="http://purl.org/dc/dcmitype/StillImage"/>
        <cc:license rdf:resource="http://creativecommons.org/licenses/publicdomain/"/>
        <dc:publisher>
          <cc:Agent rdf:about="http://openclipart.org/">
            <dc:title>Openclipart</dc:title>
          </cc:Agent>
        </dc:publisher>
        <dc:title>Stop right there</dc:title>
        <dc:date>2012-09-25T13:09:41</dc:date>
        <dc:description>space police officer doing his space policing</dc:description>
        <dc:source>http://openclipart.org/detail/172496/stop-right-there-by-tzunghaor-172496</dc:source>
        <dc:creator>
          <cc:Agent>
            <dc:title>tzunghaor</dc:title>
          </cc:Agent>
        </dc:creator>
        <dc:subject>
          <rdf:Bag>
            <rdf:li>cartoon</rdf:li>
            <rdf:li>clip art</rdf:li>
            <rdf:li>clipart</rdf:li>
            <rdf:li>gun</rdf:li>
            <rdf:li>helmet</rdf:li>
            <rdf:li>police</rdf:li>
            <rdf:li>sci-fi</rdf:li>
            <rdf:li>weapon</rdf:li>
          </rdf:Bag>
        </dc:subject>
      </cc:Work>
      <cc:License rdf:about="http://creativecommons.org/licenses/publicdomain/">
        <cc:permits rdf:resource="http://creativecommons.org/ns#Reproduction"/>
        <cc:permits rdf:resource="http://creativecommons.org/ns#Distribution"/>
        <cc:permits rdf:resource="http://creativecommons.org/ns#DerivativeWorks"/>
      </cc:License>
    </rdf:RDF>
  </metadata>
</svg>
